<?xml version="1.0" standalone="no"?>
<!DOCTYPE svg PUBLIC "-//W3C//DTD SVG 20010904//EN"
 "http://www.w3.org/TR/2001/REC-SVG-20010904/DTD/svg10.dtd">
<svg version="1.0" xmlns="http://www.w3.org/2000/svg"
 width="1675.000000pt" height="641.000000pt" viewBox="0 0 1675.000000 641.000000"
 preserveAspectRatio="xMidYMid meet">

<g transform="translate(0.000000,641.000000) scale(0.100000,-0.100000)"
fill="#000000" stroke="none">
<path d="M0 3205 l0 -3205 8375 0 8375 0 0 3205 0 3205 -8375 0 -8375 0 0
-3205z m13883 3037 c21 -21 22 -31 22 -152 0 -121 -1 -131 -23 -152 -20 -20
-34 -23 -110 -25 -48 -2 -79 1 -69 5 10 4 18 12 18 17 0 5 -8 12 -18 16 -14 6
-15 8 -2 8 9 1 16 8 16 16 0 8 -7 15 -16 16 -13 0 -12 2 2 8 24 9 23 23 -2 33
-38 14 -41 88 -3 88 23 0 25 30 3 31 -13 0 -12 2 2 8 10 4 18 11 18 16 0 5 -8
12 -18 16 -14 6 -15 8 -2 8 9 1 16 8 16 16 0 8 -7 15 -16 16 -12 0 -11 3 4 9
11 5 16 9 12 9 -5 1 -5 6 -1 12 4 7 32 10 75 7 55 -3 74 -8 92 -26z m-10223
-26 c0 -19 4 -23 20 -19 11 3 27 0 35 -7 17 -14 21 -90 5 -90 -5 0 -10 16 -10
35 0 23 -6 38 -16 42 -20 7 -34 -13 -34 -49 0 -16 -4 -28 -10 -28 -6 0 -10 30
-10 70 0 40 4 70 10 70 6 0 10 -11 10 -24z m-330 4 c0 -5 -13 -10 -30 -10 -23
0 -31 -5 -36 -24 -10 -43 -1 -61 34 -64 40 -4 43 -22 3 -22 -39 0 -61 24 -61
65 0 18 7 41 16 49 17 18 74 22 74 6z m98 -70 l3 -46 -38 1 c-32 0 -39 4 -41
23 -3 18 2 23 27 28 37 8 41 24 5 24 -15 0 -23 4 -19 11 4 5 19 9 33 7 24 -3
27 -8 30 -48z m102 41 c0 -5 -9 -11 -20 -14 -15 -4 -20 -14 -20 -41 0 -20 -4
-36 -10 -36 -5 0 -10 21 -10 48 0 45 1 47 30 49 17 1 30 -2 30 -6z m80 -1 c0
-5 -9 -10 -20 -10 -26 0 -26 -17 1 -25 29 -9 22 -49 -10 -53 -13 -2 -28 1 -34
7 -8 8 -3 11 16 11 15 0 27 5 27 10 0 6 -4 10 -9 10 -5 0 -17 7 -26 16 -12 12
-13 19 -4 30 13 16 59 19 59 4z m219 1 c8 -5 14 -24 14 -41 0 -32 -15 -50 -43
-50 -28 0 -43 18 -43 50 0 32 15 50 43 50 8 0 21 -4 29 -9z m118 -3 c16 -13
17 -60 1 -76 -7 -7 -20 -12 -30 -12 -11 0 -18 -7 -18 -20 0 -11 -7 -20 -15
-20 -12 0 -15 14 -15 68 l0 69 32 1 c18 0 38 -4 45 -10z m5092 -44 c27 -22 31
-32 31 -75 0 -53 2 -52 -70 -52 -71 0 -70 -1 -70 50 0 37 6 53 27 75 33 35 43
35 82 2z m1914 6 c4 -17 14 -20 67 -20 l63 0 -7 -32 c-8 -39 -20 -48 -67 -48
-42 0 -54 11 -64 60 -4 19 -12 41 -17 48 -8 8 -6 12 5 12 8 0 17 -9 20 -20z
m1901 4 c20 -19 20 -38 2 -54 -23 -19 -61 -8 -64 18 -7 44 32 67 62 36z
m-3024 -19 c0 -14 -4 -25 -10 -25 -5 0 -10 -13 -10 -29 0 -23 5 -31 23 -34 19
-4 18 -4 -5 -6 -26 -1 -28 2 -28 34 0 19 -4 35 -10 35 -5 0 -10 11 -10 25 0
20 5 25 25 25 20 0 25 -5 25 -25z m2190 -45 l0 -70 -27 1 c-24 2 -25 2 -5 6
20 4 22 10 22 63 0 53 -2 59 -22 63 -20 4 -19 4 5 6 l27 1 0 -70z m-9070 44
c0 -10 -7 -14 -21 -12 -29 4 -48 -26 -33 -49 7 -10 21 -17 33 -15 14 2 21 -2
21 -12 0 -25 -66 -21 -80 3 -15 29 -12 62 7 83 20 23 73 25 73 2z m6237 -71
c-2 -16 -4 -3 -4 27 0 30 2 43 4 28 2 -16 2 -40 0 -55z m713 42 c0 -19 5 -35
10 -35 6 0 10 -11 10 -25 0 -20 -5 -25 -25 -25 -20 0 -25 5 -25 25 0 14 5 25
10 25 6 0 10 13 10 29 0 23 -5 31 -22 34 -20 4 -19 4 5 6 25 1 27 -2 27 -34z
m175 26 c-26 -5 -30 -10 -30 -41 0 -28 5 -35 25 -41 20 -6 21 -7 5 -8 -11 0
-25 3 -31 7 -38 26 -14 93 34 91 l27 -1 -30 -7z m1157 2 c-12 -2 -27 -13 -32
-24 -14 -25 2 -56 32 -62 20 -4 19 -4 -4 -6 -28 -1 -48 21 -48 53 0 22 29 46
53 45 22 -2 22 -2 -1 -6z m287 -21 c-12 -5 -11 -59 1 -65 6 -3 5 -4 -2 -3 -13
3 -27 61 -20 83 3 9 7 9 17 0 7 -7 9 -13 4 -15z m654 -65 c18 -4 17 -5 -5 -6
-27 -1 -28 0 -26 52 l2 52 3 -47 c3 -39 8 -47 26 -51z m921 77 c4 -9 1 -23 -5
-30 -9 -11 -8 -18 1 -29 7 -9 10 -18 7 -22 -4 -3 -15 5 -26 18 l-20 24 -1 -22
c0 -13 -4 -23 -10 -23 -5 0 -10 23 -10 50 0 48 1 50 29 50 17 0 31 -6 35 -16z
m195 -34 c1 -30 -2 -50 -9 -50 -5 0 -10 22 -10 50 0 28 4 50 8 50 5 0 9 -22
11 -50z m107 35 c9 -8 11 -15 5 -15 -15 0 -14 -57 2 -64 6 -3 3 -5 -8 -3 -14
1 -21 11 -23 33 -3 27 -7 32 -28 30 -29 -1 -31 -12 -3 -21 29 -10 20 -39 -14
-43 -16 -2 -27 2 -27 8 0 7 7 10 15 7 8 -4 17 -2 20 3 3 5 -4 11 -15 15 -11 3
-20 15 -20 26 0 15 7 19 35 19 19 0 35 5 35 10 0 14 9 12 26 -5z m-1431 -15
c17 -19 17 -21 0 -40 -21 -23 -44 -28 -25 -5 11 13 7 15 -24 15 -20 0 -36 5
-36 10 0 6 16 10 36 10 31 0 35 2 24 15 -19 23 4 18 25 -5z m957 0 c18 -16 19
-20 6 -20 -9 0 -18 -6 -20 -12 -3 -9 -9 -8 -22 4 -14 15 -15 20 -4 32 17 19
15 19 40 -4z m-3646 -30 l1 -35 -4 33 c-6 46 -36 40 -44 -8 l-6 -35 -2 41 c-1
39 1 41 27 40 24 -1 27 -5 28 -36z m44 0 c0 -22 -4 -40 -10 -40 -5 0 -10 18
-10 40 0 22 5 40 10 40 6 0 10 -18 10 -40z m53 30 c-14 -6 -23 -18 -23 -30 0
-12 10 -25 23 -30 22 -10 22 -10 -3 -7 -43 4 -41 78 2 76 l23 0 -22 -9z m44
-52 c-2 -13 -4 -3 -4 22 0 25 2 35 4 23 2 -13 2 -33 0 -45z m83 42 c15 -28 -4
-62 -33 -58 -22 3 -34 35 -23 64 8 21 44 17 56 -6z m668 8 c17 -17 15 -43 -4
-59 -31 -26 -70 25 -44 56 15 18 32 19 48 3z m134 -1 c11 -18 10 -67 -2 -67
-5 0 -10 16 -10 35 0 51 -30 49 -31 -2 l-2 -38 -6 35 c-4 22 -12 35 -21 35 -9
0 -17 -13 -21 -35 l-6 -35 -2 40 -1 41 47 1 c27 1 51 -3 55 -10z m88 -7 c15
-27 -5 -64 -30 -57 -14 4 -20 -2 -23 -22 -2 -14 -5 1 -6 34 -1 58 0 61 24 63
16 1 28 -5 35 -18z m78 -21 c3 -34 1 -36 -25 -35 -37 1 -40 37 -3 46 24 6 24
6 5 18 l-20 13 20 -3 c15 -2 21 -12 23 -39z m59 30 c-10 -6 -17 -22 -17 -39 0
-17 -4 -30 -10 -30 -5 0 -10 17 -10 38 0 33 3 37 27 39 22 1 24 -1 10 -8z m71
-32 c3 -33 1 -37 -21 -37 -25 0 -37 15 -30 38 3 6 13 12 24 12 24 0 25 17 2
24 -14 4 -14 4 2 3 15 -2 21 -11 23 -40z m59 30 c-9 -7 -18 -25 -20 -42 -3
-25 -4 -23 -6 10 -1 35 2 41 20 42 19 2 19 0 6 -10z m667 -3 c3 -9 6 -26 6
-38 0 -17 -6 -22 -30 -24 -25 -2 -30 1 -30 19 0 12 8 23 20 26 25 7 26 20 3
26 -14 4 -13 5 3 6 12 0 25 -6 28 -15z m53 3 c-9 -7 -18 -25 -20 -42 -3 -25
-4 -23 -6 10 -1 35 2 41 20 42 19 2 19 0 6 -10z m60 0 c-9 -7 -18 -25 -20 -42
-3 -25 -4 -23 -6 10 -1 35 2 41 20 42 19 2 19 0 6 -10z m43 -27 c0 -22 -4 -40
-10 -40 -5 0 -10 18 -10 40 0 22 5 40 10 40 6 0 10 -18 10 -40z m125 0 c0 -31
-3 -35 -25 -35 -19 0 -26 6 -28 23 -5 36 5 54 30 50 19 -2 23 -9 23 -38z m660
0 c0 -38 -24 -52 -50 -30 -31 25 -9 73 30 68 16 -2 20 -11 20 -38z m77 14 c-3
-16 -13 -29 -26 -32 -20 -6 -20 -6 4 -12 38 -9 34 -45 -5 -45 -24 0 -29 4 -27
20 1 11 3 33 3 49 0 39 5 46 33 46 20 0 22 -4 18 -26z m35 -36 c-2 -13 -4 -3
-4 22 0 25 2 35 4 23 2 -13 2 -33 0 -45z m79 22 c1 -35 1 -35 -3 -2 -5 40 -30
43 -39 5 -10 -48 -12 -49 -13 -7 -1 39 1 41 27 40 24 -1 27 -5 28 -36z m712
28 c19 -19 14 -28 -14 -28 -16 0 -24 -5 -21 -12 2 -7 12 -12 21 -12 9 1 16 -3
16 -8 0 -5 -12 -8 -27 -6 -29 3 -41 32 -29 64 7 17 38 18 54 2z m84 -14 c-3
-16 -13 -29 -26 -32 -20 -6 -20 -6 4 -12 16 -4 25 -13 25 -25 0 -16 -7 -20
-35 -20 -31 0 -35 3 -32 25 1 14 2 36 2 49 0 33 7 41 39 41 25 0 28 -3 23 -26z
m218 16 c0 -5 -7 -10 -15 -10 -10 0 -15 -10 -15 -30 0 -16 -4 -30 -10 -30 -5
0 -10 18 -10 40 0 36 3 40 25 40 14 0 25 -4 25 -10z m64 -6 c3 -9 6 -27 6 -40
0 -21 -5 -24 -35 -24 -31 0 -35 3 -35 25 0 20 5 25 28 26 23 2 24 2 5 6 -30 6
-29 23 1 23 13 0 27 -7 30 -16z m126 5 c0 -5 -8 -9 -17 -9 -17 -1 -17 -1 0
-11 9 -5 17 -19 17 -29 0 -16 -7 -20 -30 -20 -16 0 -30 5 -30 11 0 6 9 9 20 6
26 -7 25 0 -2 24 -33 27 -48 24 -48 -11 0 -16 -4 -30 -10 -30 -5 0 -10 18 -10
39 l0 40 55 0 c30 0 55 -5 55 -10z m-782 -41 c14 -14 16 -58 3 -58 -5 0 -11
10 -13 23 -2 17 -11 23 -35 25 -26 3 -34 -2 -47 -25 l-15 -28 -1 26 c0 34 17
49 60 49 20 0 41 -5 48 -12z m-1898 -43 c0 -8 -4 -15 -10 -15 -5 0 -10 7 -10
15 0 8 5 15 10 15 6 0 10 -7 10 -15z m88 -3 c2 -7 -3 -12 -12 -12 -9 0 -16 7
-16 16 0 17 22 14 28 -4z m-7801 -28 c-3 -3 -12 -4 -19 -1 -8 3 -5 6 6 6 11 1
17 -2 13 -5z m760 0 c-3 -3 -12 -4 -19 -1 -8 3 -5 6 6 6 11 1 17 -2 13 -5z
m-740 -26 c-3 -8 -6 -5 -6 6 -1 11 2 17 5 13 3 -3 4 -12 1 -19z m53 8 c0 -2
-7 -7 -16 -10 -8 -3 -12 -2 -9 4 6 10 25 14 25 6z m107 -2 c-3 -3 -12 -4 -19
-1 -8 3 -5 6 6 6 11 1 17 -2 13 -5z m53 2 c0 -2 -7 -7 -16 -10 -8 -3 -12 -2
-9 4 6 10 25 14 25 6z m160 0 c0 -2 -7 -7 -16 -10 -8 -3 -12 -2 -9 4 6 10 25
14 25 6z m156 -37 c2 -31 1 -31 -3 -4 -3 16 -10 34 -16 38 -8 6 -7 7 3 4 9 -2
16 -17 16 -38z m64 37 c0 -2 -9 -6 -20 -9 -11 -3 -18 -1 -14 4 5 9 34 13 34 5z
m54 -4 c2 -4 -4 -8 -14 -8 -10 0 -16 4 -14 8 3 4 9 8 14 8 5 0 11 -4 14 -8z
m173 -28 c1 -25 0 -26 -4 -4 -3 14 -10 29 -17 33 -7 6 -6 7 4 4 8 -2 16 -16
17 -33z m63 32 c0 -2 -7 -7 -16 -10 -8 -3 -12 -2 -9 4 6 10 25 14 25 6z m37
-2 c-3 -3 -12 -4 -19 -1 -8 3 -5 6 6 6 11 1 17 -2 13 -5z m-660 -51 c-3 -10
-5 -2 -5 17 0 19 2 27 5 18 2 -10 2 -26 0 -35z m-280 31 c-3 -3 -12 -4 -19 -1
-8 3 -5 6 6 6 11 1 17 -2 13 -5z m250 -16 c-3 -8 -6 -5 -6 6 -1 11 2 17 5 13
3 -3 4 -12 1 -19z m510 16 c-3 -3 -12 -4 -19 -1 -8 3 -5 6 6 6 11 1 17 -2 13
-5z m-674 -11 c-7 -2 -21 -2 -30 0 -10 3 -4 5 12 5 17 0 24 -2 18 -5z m580 0
c-7 -2 -21 -2 -30 0 -10 3 -4 5 12 5 17 0 24 -2 18 -5z m-592 -31 c-7 -2 -18
1 -23 6 -8 8 -4 9 13 5 13 -4 18 -8 10 -11z m530 0 c-7 -2 -18 1 -23 6 -8 8
-4 9 13 5 13 -4 18 -8 10 -11z m60 0 c-7 -2 -18 1 -23 6 -8 8 -4 9 13 5 13 -4
18 -8 10 -11z m-1199 -1409 c-7 -65 -12 -67 -12 -5 0 29 4 52 9 52 5 0 6 -21
3 -47z m86 -5 l-1 -53 -7 45 c-4 25 -8 39 -8 31 -1 -8 -4 -12 -7 -9 -8 7 5 38
16 38 5 0 8 -24 7 -52z m129 46 c-3 -3 -12 -4 -19 -1 -8 3 -5 6 6 6 11 1 17
-2 13 -5z m136 -1 c-19 -4 -23 -11 -23 -43 0 -32 4 -39 23 -43 19 -4 18 -4 -5
-6 -27 -1 -28 1 -28 49 0 48 1 50 28 49 23 -2 24 -2 5 -6z m170 0 c-7 -2 -21
-2 -30 0 -10 3 -4 5 12 5 17 0 24 -2 18 -5z m131 -2 c3 -4 -6 -6 -19 -3 -21 3
-25 0 -25 -18 0 -18 4 -21 24 -18 16 3 23 1 19 -7 -2 -7 -13 -11 -23 -8 -13 4
-20 -2 -23 -19 -2 -12 -5 1 -6 30 -1 49 0 52 23 52 14 0 27 -4 30 -9z m101 -1
c3 -5 1 -10 -4 -10 -6 0 -11 5 -11 10 0 6 2 10 4 10 3 0 8 -4 11 -10z m286 -7
c11 -15 11 -16 -1 -5 -8 6 -22 12 -32 12 -14 0 -18 -8 -18 -40 0 -32 4 -40 18
-40 10 0 24 6 32 13 12 10 12 9 1 -5 -7 -10 -24 -18 -37 -18 -22 0 -24 4 -24
50 0 46 2 50 24 50 13 0 30 -8 37 -17z m123 1 c3 -8 2 -12 -4 -9 -6 3 -10 1
-10 -6 0 -7 -2 -10 -5 -7 -5 5 4 38 10 38 2 0 6 -7 9 -16z m150 7 c3 -4 -6 -6
-19 -3 -21 3 -25 0 -25 -18 0 -18 4 -21 24 -18 16 3 23 1 19 -7 -2 -7 -13 -11
-23 -8 -13 4 -20 -2 -23 -19 -2 -12 -5 1 -6 30 -1 49 0 52 23 52 14 0 27 -4
30 -9z m122 -50 c13 -14 24 -30 24 -35 0 -5 -10 4 -22 20 l-23 28 -6 -29 c-5
-22 -7 -15 -7 25 0 30 3 46 5 36 3 -11 16 -31 29 -45z m24 55 c0 -2 -8 -10
-17 -17 -16 -13 -17 -12 -4 4 13 16 21 21 21 13z m200 0 c0 -2 -9 -6 -20 -9
-11 -3 -18 -1 -14 4 5 9 34 13 34 5z m133 -3 c-7 -2 -21 -2 -30 0 -10 3 -4 5
12 5 17 0 24 -2 18 -5z m105 0 c-10 -2 -18 -13 -18 -24 0 -11 7 -19 18 -20 15
-1 15 -2 0 -6 -9 -2 -19 -14 -21 -26 -2 -12 -5 2 -6 31 -1 48 1 52 22 51 16
-1 18 -2 5 -6z m119 -70 c-2 -16 -4 -3 -4 27 0 30 2 43 4 28 2 -16 2 -40 0
-55z m126 70 c-7 -2 -21 -2 -30 0 -10 3 -4 5 12 5 17 0 24 -2 18 -5z m124 1
c-3 -3 -12 -4 -19 -1 -8 3 -5 6 6 6 11 1 17 -2 13 -5z m-340 -36 c-3 -7 -5 -2
-5 12 0 14 2 19 5 13 2 -7 2 -19 0 -25z m324 -3 c11 -4 18 -9 16 -12 -10 -10
-47 18 -46 35 1 16 2 16 6 0 2 -9 13 -20 24 -23z m-2077 -20 c5 -22 4 -26 -4
-15 -5 8 -10 24 -10 34 0 26 6 18 14 -19z m73 3 c-3 -7 -5 -2 -5 12 0 14 2 19
5 13 2 -7 2 -19 0 -25z m150 0 c-3 -7 -5 -2 -5 12 0 14 2 19 5 13 2 -7 2 -19
0 -25z m350 -20 c-2 -13 -4 -5 -4 17 -1 22 1 32 4 23 2 -10 2 -28 0 -40z
m-217 38 c0 -2 -11 -6 -25 -8 -14 -3 -25 -1 -25 3 0 5 11 9 25 9 14 0 25 -2
25 -4z m662 -41 c8 -19 8 -19 -5 -2 -16 19 -57 23 -57 5 0 -6 -2 -9 -5 -6 -12
12 7 36 26 31 12 -3 19 0 20 8 0 11 2 10 6 -1 3 -8 10 -24 15 -35z m608 41 c0
-2 -11 -6 -25 -8 -14 -3 -25 -1 -25 3 0 5 11 9 25 9 14 0 25 -2 25 -4z m350 0
c0 -2 -11 -6 -25 -8 -14 -3 -25 -1 -25 3 0 5 11 9 25 9 14 0 25 -2 25 -4z
m-482 -37 c-3 -8 -7 -3 -11 10 -4 17 -3 21 5 13 5 -5 8 -16 6 -23z m-1626 -11
c-7 -7 -12 -8 -12 -2 0 6 3 14 7 17 3 4 9 5 12 2 2 -3 -1 -11 -7 -17z m2228 7
c-7 -8 -20 -15 -29 -15 -11 0 -8 5 9 14 33 19 35 19 20 1z m-2053 -11 c-3 -3
-12 -4 -19 -1 -8 3 -5 6 6 6 11 1 17 -2 13 -5z m306 -1 c-7 -2 -21 -2 -30 0
-10 3 -4 5 12 5 17 0 24 -2 18 -5z m1124 1 c-3 -3 -12 -4 -19 -1 -8 3 -5 6 6
6 11 1 17 -2 13 -5z m146 -1 c-7 -2 -21 -2 -30 0 -10 3 -4 5 12 5 17 0 24 -2
18 -5z m350 0 c-7 -2 -21 -2 -30 0 -10 3 -4 5 12 5 17 0 24 -2 18 -5z m6904
-144 c346 -38 645 -243 803 -550 259 -505 63 -1120 -441 -1379 -364 -187 -794
-143 -1116 115 -261 209 -409 565 -373 896 57 520 471 903 1003 928 15 0 71
-4 124 -10z m-4937 -139 c22 -42 -22 -74 -74 -54 -16 6 -22 54 -9 67 3 4 21 7
39 7 23 0 37 -6 44 -20z m-3884 -36 c50 -37 53 -102 8 -148 l-25 -24 46 -65
c25 -36 45 -68 45 -71 0 -4 -23 -6 -52 -4 -51 3 -52 4 -85 58 -18 30 -37 56
-43 58 -6 2 -10 -21 -10 -57 l0 -61 -50 0 -50 0 0 171 0 171 94 -4 c76 -2 100
-7 122 -24z m1692 -16 c3 -24 8 -28 33 -28 27 0 29 -3 29 -35 0 -32 -2 -35
-30 -35 l-31 0 3 -62 3 -63 33 3 c30 3 32 2 32 -31 0 -38 -15 -47 -78 -47 -68
0 -92 37 -92 141 0 46 -3 59 -15 59 -22 0 -18 38 6 52 11 7 27 28 34 46 12 28
19 33 42 30 22 -2 29 -9 31 -30z m-1398 -43 c36 -19 60 -62 60 -110 l0 -35
-80 0 c-64 0 -80 -3 -80 -15 0 -20 41 -29 96 -21 44 6 44 5 44 -24 0 -24 -6
-33 -26 -40 -60 -23 -149 -5 -188 39 -27 30 -33 109 -11 154 28 61 119 86 185
52z m190 0 c0 -19 9 -19 34 0 28 21 69 19 99 -6 54 -42 59 -161 10 -220 -22
-26 -32 -30 -62 -27 -20 3 -44 8 -53 12 -16 7 -18 1 -18 -63 l0 -71 -45 0 -45
0 0 195 0 195 40 0 c29 0 40 -4 40 -15z m320 -73 c0 -105 17 -134 54 -96 12
12 16 36 16 100 l0 84 50 0 50 0 0 -135 0 -135 -40 0 c-29 0 -40 4 -40 15 0
19 -9 19 -34 0 -32 -24 -93 -19 -121 10 -24 23 -25 31 -25 135 l0 110 45 0 45
0 0 -88z m427 68 c33 -20 44 -43 46 -102 l2 -33 -83 -3 c-80 -3 -82 -3 -71
-24 10 -18 18 -20 75 -15 l64 5 0 -29 c0 -35 -28 -49 -97 -49 -57 0 -110 25
-128 61 -20 37 -19 112 1 150 29 57 129 77 191 39z m271 9 c28 -10 30 -12 20
-40 -10 -30 -14 -30 -80 -13 -35 10 -28 -17 9 -32 56 -23 83 -52 83 -88 -1
-57 -41 -86 -117 -86 -81 0 -93 7 -93 51 0 37 1 38 26 29 32 -13 94 -13 94 -1
0 5 -25 21 -55 35 -58 26 -73 52 -61 101 12 47 100 70 174 44z m487 -3 c41
-17 62 -48 69 -101 16 -119 -106 -199 -205 -132 -41 28 -59 60 -59 110 0 107
93 165 195 123z m315 -2 c8 -8 7 -19 -1 -37 -12 -26 -22 -28 -75 -12 -6 2 -17
-1 -25 -5 -9 -6 1 -15 36 -30 59 -25 75 -43 75 -86 0 -55 -28 -77 -102 -82
-81 -5 -108 7 -108 49 l0 30 61 -7 c73 -8 76 4 9 38 -58 30 -78 64 -61 105 7
17 22 36 34 42 27 13 143 9 157 -5z m270 1 c0 -19 9 -19 34 0 28 21 69 19 99
-6 54 -42 59 -161 10 -220 -22 -26 -32 -30 -62 -27 -20 3 -44 8 -53 12 -16 7
-18 1 -18 -63 l0 -71 -45 0 -45 0 0 195 0 195 40 0 c29 0 40 -4 40 -15z m303
-6 l6 -21 27 21 c33 26 89 29 80 5 -3 -9 -6 -29 -6 -45 0 -26 -3 -29 -33 -29
-49 0 -57 -14 -57 -102 l0 -78 -45 0 -45 0 0 135 0 135 34 0 c26 0 35 -5 39
-21z m327 6 c36 -19 60 -62 60 -110 l0 -35 -80 0 c-64 0 -80 -3 -80 -15 0 -20
41 -29 96 -21 44 6 44 5 44 -24 0 -24 -6 -33 -26 -40 -60 -23 -149 -5 -188 39
-27 30 -33 109 -11 154 28 61 119 86 185 52z m184 0 c5 -14 9 -14 35 0 39 20
81 19 110 -1 22 -16 25 -16 51 0 29 16 76 21 105 10 32 -13 45 -59 45 -164 l0
-100 -50 0 -50 0 0 94 c0 98 -7 113 -42 94 -15 -7 -18 -23 -18 -98 l0 -90 -50
0 -50 0 0 89 c0 98 -11 122 -46 97 -16 -12 -20 -30 -23 -100 l-3 -86 -44 0
-44 0 0 135 0 135 34 0 c21 0 36 -6 40 -15z m496 -120 l0 -135 -45 0 -45 0 0
135 0 135 45 0 45 0 0 -135z m160 47 c0 -105 17 -134 54 -96 12 12 16 36 16
100 l0 84 50 0 50 0 0 -135 0 -135 -40 0 c-29 0 -40 4 -40 15 0 19 -9 19 -34
0 -32 -24 -93 -19 -121 10 -24 23 -25 31 -25 135 l0 110 45 0 45 0 0 -88z
m304 72 c5 -14 8 -14 28 0 29 20 87 20 116 1 19 -14 24 -14 51 0 46 23 93 19
122 -11 21 -23 24 -36 27 -135 l4 -109 -51 0 -51 0 0 89 c0 98 -11 122 -46 97
-16 -12 -20 -30 -23 -100 l-3 -86 -44 0 -44 0 0 81 c0 90 -11 122 -38 112 -28
-11 -32 -24 -32 -110 l0 -83 -45 0 -45 0 0 135 0 135 34 0 c21 0 36 -6 40 -16z
m-2554 -379 c-32 -39 -150 -85 -150 -58 0 4 14 22 32 40 28 29 39 33 81 33 42
0 48 -2 37 -15z m380 -5 c22 -42 -22 -74 -74 -54 -16 6 -22 54 -9 67 3 4 21 7
39 7 23 0 37 -6 44 -20z m-722 -52 c3 -24 8 -28 33 -28 27 0 29 -3 29 -35 0
-32 -2 -35 -30 -35 l-31 0 3 -62 3 -63 33 3 c30 3 32 1 32 -27 0 -20 -7 -34
-19 -41 -32 -17 -96 -12 -122 9 -21 17 -24 30 -27 100 -3 61 -8 81 -18 81 -20
0 -17 37 5 52 10 7 26 28 35 46 14 27 22 33 44 30 21 -2 28 -9 30 -30z m512 2
c0 -28 3 -30 35 -30 33 0 35 -2 35 -35 0 -33 -2 -35 -35 -35 l-35 0 0 -54 c0
-59 13 -78 48 -69 20 5 22 1 22 -30 0 -40 -11 -47 -71 -47 -29 0 -47 7 -64 25
-22 21 -25 33 -25 100 0 60 -3 75 -15 75 -21 0 -19 34 4 54 11 10 25 31 31 47
10 23 19 29 41 29 26 0 29 -4 29 -30z m-1980 -46 c7 -7 7 -21 -1 -41 -10 -29
-12 -31 -42 -22 -45 13 -77 -10 -77 -56 0 -34 29 -67 54 -60 61 18 66 17 66
-19 0 -42 -20 -56 -82 -56 -48 0 -100 27 -119 61 -18 34 -15 124 5 154 25 38
72 56 134 52 29 -2 57 -8 62 -13z m277 -28 c29 -31 33 -42 33 -88 -1 -62 -15
-92 -56 -119 -58 -38 -160 -15 -191 45 -21 40 -20 118 2 152 24 37 71 55 129
50 42 -3 55 -9 83 -40z m161 28 c9 -16 11 -16 33 0 29 20 71 21 108 1 38 -19
41 -30 41 -151 l0 -104 -45 0 -45 0 0 84 c0 95 -15 125 -51 106 -17 -9 -19
-22 -19 -100 l0 -90 -50 0 -50 0 0 135 0 135 35 0 c21 0 37 -6 43 -16z m557 1
c38 -19 55 -51 55 -105 l0 -40 -80 0 c-80 0 -93 -6 -65 -30 10 -9 35 -11 75
-7 l60 5 0 -29 c0 -35 -27 -49 -96 -49 -89 0 -138 38 -148 115 -16 115 92 190
199 140z m283 4 c28 -10 30 -12 20 -40 -10 -30 -14 -30 -80 -13 -35 10 -28
-17 9 -32 56 -23 83 -52 83 -88 -1 -57 -41 -86 -117 -86 -81 0 -93 7 -93 51 0
37 1 38 26 29 32 -13 94 -13 94 -1 0 5 -25 21 -55 35 -58 26 -73 52 -61 101
12 47 100 70 174 44z m492 -4 c36 -19 60 -62 60 -110 l0 -35 -80 0 c-64 0 -80
-3 -80 -15 0 -20 41 -29 96 -21 44 6 44 5 44 -24 0 -24 -6 -33 -26 -40 -60
-23 -149 -5 -188 39 -27 30 -33 109 -11 154 28 61 119 86 185 52z m420 -120
l0 -135 -45 0 -45 0 0 135 0 135 45 0 45 0 0 -135z m271 118 c7 -7 6 -18 -2
-36 -11 -23 -17 -26 -56 -25 -30 2 -47 -2 -53 -12 -12 -19 -12 -71 -1 -89 9
-14 55 -17 91 -6 17 6 20 2 20 -30 0 -30 -5 -37 -27 -46 -43 -17 -120 -6 -148
21 -68 64 -53 189 28 226 35 16 131 14 148 -3z m264 -13 c24 -22 25 -29 25
-132 l0 -108 -34 0 c-22 0 -36 6 -40 16 -6 15 -8 15 -31 0 -78 -52 -172 22
-139 109 10 25 58 45 109 45 33 0 45 4 42 13 -2 7 -23 12 -56 12 -35 0 -55 5
-61 15 -27 42 6 61 97 57 49 -2 68 -8 88 -27z m-1031 -376 c3 -8 3 -20 0 -28
-13 -34 -84 -22 -84 14 0 36 71 48 84 14z m456 -164 l0 -180 -40 0 -40 0 0
180 0 180 40 0 40 0 0 -180z m540 0 l0 -180 -45 0 -45 0 0 180 0 180 45 0 45
0 0 -180z m-1236 65 c6 -24 26 -35 26 -14 0 8 58 39 75 39 3 0 5 -17 5 -39 0
-37 -1 -39 -39 -45 -22 -3 -41 -13 -45 -22 -3 -8 -6 -49 -6 -90 l0 -74 -40 0
-40 0 0 135 0 135 29 0 c22 0 30 -6 35 -25z m236 -110 l0 -135 -40 0 -40 0 0
135 0 135 40 0 40 0 0 -135z m281 99 c16 -15 19 -31 19 -126 l0 -108 -25 0
c-14 0 -29 8 -35 20 -10 18 -13 19 -33 5 -47 -31 -117 -20 -135 21 -30 64 4
107 91 118 38 5 57 12 57 21 0 20 -34 28 -74 17 -30 -9 -35 -7 -45 14 -12 28
-3 36 54 44 50 7 101 -3 126 -26z m539 26 c31 -1 41 -15 31 -42 -9 -24 -14
-26 -49 -21 -47 6 -72 -14 -72 -59 0 -56 50 -85 101 -58 17 10 19 7 19 -24 0
-40 -17 -49 -86 -48 -89 1 -122 46 -115 157 1 17 9 40 19 53 21 27 88 54 117
47 11 -3 27 -5 35 -5z m443 -12 c22 -11 47 -67 47 -103 0 -25 -1 -25 -80 -25
-74 0 -80 -2 -80 -20 0 -31 41 -45 96 -33 l45 10 -3 -31 c-3 -29 -7 -32 -48
-37 -95 -14 -165 23 -177 93 -7 44 2 96 22 121 30 41 123 53 178 25z m297 -7
c32 -23 38 -47 39 -153 l1 -88 -30 0 c-19 0 -33 7 -39 19 -10 19 -11 19 -48 0
-68 -35 -133 -2 -133 66 0 45 35 72 106 80 56 8 64 14 39 35 -11 9 -25 10 -54
3 -36 -10 -40 -9 -50 15 -14 30 -14 31 40 41 54 11 96 5 129 -18z m175 10 c5
-18 7 -18 46 2 36 18 43 18 77 5 51 -19 62 -46 62 -160 l0 -98 -45 0 -44 0 -3
91 c-3 76 -6 94 -21 103 -15 9 -22 7 -38 -13 -15 -19 -19 -39 -19 -102 l0 -79
-45 0 -45 0 0 135 0 135 34 0 c25 0 36 -5 41 -19z m325 -175 c15 -20 9 -56
-12 -70 -25 -16 -72 4 -76 32 -5 31 15 52 48 52 15 0 33 -7 40 -14z m-3800
-381 c-7 -9 -15 -13 -17 -11 -7 7 7 26 19 26 6 0 6 -6 -2 -15z m550 -53 l0
-69 -32 -1 c-41 -1 -58 13 -58 48 0 33 22 54 50 47 16 -4 20 0 20 19 0 13 5
24 10 24 6 0 10 -29 10 -68z m510 -2 c0 -40 -4 -70 -10 -70 -6 0 -10 30 -10
70 0 40 4 70 10 70 6 0 10 -30 10 -70z m1000 28 l0 -41 27 24 26 24 -16 -24
c-15 -23 -15 -26 4 -53 11 -15 16 -28 10 -28 -6 0 -16 9 -23 20 -7 11 -16 20
-20 20 -5 0 -8 -9 -8 -20 0 -11 -4 -20 -10 -20 -6 0 -10 30 -10 70 0 40 4 70
10 70 6 0 10 -19 10 -42z m464 27 c-16 -13 -17 -16 -4 -25 10 -6 11 -10 3 -10
-8 0 -14 -17 -15 -47 -1 -48 -1 -48 -5 -8 -3 22 -9 45 -15 52 -7 9 -7 13 0 13
5 0 12 9 15 20 3 11 13 20 23 20 16 0 16 -1 -2 -15z m207 -28 c27 7 49 -14 49
-47 0 -34 -19 -51 -54 -48 -26 2 -26 3 -25 73 1 38 4 58 6 44 3 -21 9 -26 24
-22z m86 -64 c-2 -21 -4 -4 -4 37 0 41 2 58 4 38 2 -21 2 -55 0 -75z m357 92
c-16 -13 -17 -16 -4 -25 10 -6 11 -10 3 -10 -9 0 -13 -16 -13 -45 0 -62 -17
-57 -22 6 -3 55 12 89 39 89 14 0 14 -2 -3 -15z m176 -8 c0 -18 5 -23 28 -22
26 0 27 -2 28 -50 1 -34 0 -38 -3 -13 -8 70 -53 76 -53 7 0 -21 -4 -39 -10
-39 -6 0 -10 30 -10 70 0 40 4 70 10 70 6 0 10 -10 10 -23z m435 4 c-3 -6 -11
-11 -17 -11 -6 0 -6 6 2 15 14 17 26 13 15 -4z m715 -51 c0 -40 -4 -70 -10
-70 -6 0 -10 30 -10 70 0 40 4 70 10 70 6 0 10 -30 10 -70z m-4589 44 c10 -12
10 -20 1 -34 -7 -12 -8 -21 -2 -25 16 -10 12 -42 -6 -49 -9 -3 -29 -6 -45 -6
l-29 0 0 65 0 65 34 0 c18 0 39 -7 47 -16z m829 6 c0 -5 -4 -10 -10 -10 -5 0
-10 5 -10 10 0 6 5 10 10 10 6 0 10 -4 10 -10z m1830 0 c0 -5 -4 -10 -10 -10
-5 0 -10 5 -10 10 0 6 5 10 10 10 6 0 10 -4 10 -10z m1480 0 c0 -5 -4 -10 -10
-10 -5 0 -10 5 -10 10 0 6 5 10 10 10 6 0 10 -4 10 -10z m-3142 -20 c15 -1 15
-2 0 -11 -11 -6 -18 -22 -18 -39 0 -17 7 -34 18 -40 15 -10 15 -10 -3 -8 -16
3 -21 13 -25 50 -6 47 -1 85 8 61 2 -7 11 -13 20 -13z m572 -3 c12 -4 11 -6
-2 -6 -14 -1 -18 -10 -18 -36 0 -22 6 -38 18 -44 16 -10 16 -10 0 -11 -21 0
-35 24 -39 65 -4 32 9 63 20 48 3 -6 13 -13 21 -16z m340 0 c12 -4 11 -6 -2
-6 -14 -1 -18 -10 -18 -36 0 -22 6 -38 18 -45 15 -10 15 -10 -3 -8 -15 3 -21
13 -26 48 -6 46 -1 79 10 62 3 -5 13 -12 21 -15z m1890 0 c12 -4 11 -6 -2 -6
-14 -1 -18 -10 -18 -36 0 -22 6 -38 18 -44 16 -10 16 -10 0 -11 -21 0 -35 24
-39 65 -4 32 9 63 20 48 3 -6 13 -13 21 -16z m-3725 -82 c16 0 21 8 23 43 4
58 22 53 22 -7 l0 -49 -37 1 -38 2 -1 50 -2 50 7 -45 c5 -36 10 -45 26 -45z
m125 76 c0 -5 -7 -8 -16 -7 -26 2 -27 -18 -2 -29 13 -6 23 -19 23 -30 0 -15
-8 -21 -32 -23 -19 -2 -33 1 -33 8 0 6 10 8 24 4 36 -9 41 13 6 31 -31 16 -40
39 -17 48 20 9 47 8 47 -2z m109 -66 c-1 -38 -4 -58 -6 -44 -3 21 -9 26 -24
22 -26 -7 -49 14 -49 46 0 35 17 52 52 49 28 -2 28 -2 27 -73z m51 36 c0 -69
45 -63 53 7 3 31 4 29 5 -13 2 -50 2 -51 -30 -53 -17 -1 -35 3 -40 10 -11 18
-10 88 2 88 6 0 10 -18 10 -39z m158 27 c21 -21 13 -38 -18 -38 -19 0 -30 -5
-30 -14 0 -17 25 -27 47 -19 11 4 14 3 9 -5 -13 -22 -56 -14 -68 13 -22 49 25
98 60 63z m210 0 c7 -7 12 -29 12 -49 0 -36 -1 -37 -37 -36 -31 2 -39 6 -41
25 -3 18 2 23 28 28 34 7 35 30 1 27 -13 -2 -20 1 -16 7 8 14 38 13 53 -2z
m102 -38 c0 -27 -4 -50 -10 -50 -5 0 -10 23 -10 50 0 28 5 50 10 50 6 0 10
-22 10 -50z m88 44 c19 -4 22 -11 22 -49 0 -25 -4 -45 -10 -45 -5 0 -10 18
-10 39 0 69 -45 63 -53 -7 -3 -31 -4 -28 -5 14 -2 54 3 59 56 48z m180 -6 c22
-22 13 -38 -19 -38 -24 0 -30 -4 -27 -17 2 -11 12 -18 26 -17 12 0 22 -3 22
-8 0 -12 -44 -10 -58 4 -27 27 -8 88 28 88 9 0 21 -5 28 -12z m89 -65 c-2 -16
-4 -3 -4 27 0 30 2 43 4 28 2 -16 2 -40 0 -55z m104 50 c-5 -18 -15 -29 -29
-31 -31 -5 -28 -32 3 -32 29 0 45 -28 24 -41 -33 -21 -92 -2 -71 23 6 8 9 31
6 52 -6 48 0 56 41 56 31 0 33 -2 26 -27z m97 15 c22 -22 13 -38 -19 -38 -24
0 -30 -4 -27 -17 2 -11 12 -18 26 -17 12 0 22 -3 22 -8 0 -12 -44 -10 -58 4
-27 27 -8 88 28 88 9 0 21 -5 28 -12z m108 -43 l2 -50 -7 45 c-5 36 -10 45
-26 45 -16 0 -21 -8 -23 -42 -4 -59 -22 -54 -22 6 l0 49 38 -1 37 -2 1 -50z
m158 49 c9 -3 16 -15 16 -25 0 -14 -7 -19 -30 -19 -16 0 -30 -4 -30 -9 0 -16
28 -31 46 -25 15 6 17 4 7 -6 -18 -20 -60 -4 -67 25 -12 47 16 75 58 59z m191
-4 c4 -6 -3 -9 -16 -7 -30 3 -34 -16 -7 -28 33 -15 30 -49 -4 -53 -16 -2 -28
2 -28 8 0 6 5 8 10 5 6 -4 19 -4 28 0 15 6 13 10 -12 30 -19 15 -27 29 -23 39
7 18 42 22 52 6z m163 -2 c7 -7 12 -24 12 -38 0 -32 -17 -50 -47 -50 -38 0
-56 55 -27 84 18 19 45 21 62 4z m102 1 c0 -5 -4 -8 -9 -5 -19 12 -41 -7 -41
-34 0 -22 6 -31 28 -38 l27 -10 -27 -1 c-43 -1 -64 52 -32 83 17 18 54 22 54
5z m226 4 c-7 -8 -11 -9 -37 -12 -5 0 -9 -15 -7 -33 2 -25 9 -34 28 -39 l25
-7 -27 -1 c-17 -1 -31 6 -38 18 -23 44 -5 81 39 81 13 0 21 -3 17 -7z m93 -7
c31 -37 -9 -103 -46 -80 -37 23 -24 94 17 94 10 0 23 -6 29 -14z m99 8 c19 -4
22 -11 22 -49 0 -25 -4 -45 -10 -45 -5 0 -10 18 -10 39 0 69 -45 63 -53 -7 -3
-31 -4 -28 -5 14 -2 54 3 59 56 48z m132 -44 c0 -27 -4 -50 -10 -50 -5 0 -10
23 -10 50 0 28 5 50 10 50 6 0 10 -22 10 -50z m88 38 c7 -7 12 -29 12 -49 0
-36 -1 -37 -37 -36 -31 2 -39 6 -41 25 -3 18 2 23 28 28 34 7 35 30 1 27 -13
-2 -20 1 -16 7 8 14 38 13 53 -2z m260 0 c22 -22 13 -38 -19 -38 -24 0 -30 -4
-27 -17 2 -11 12 -18 26 -17 12 0 22 -3 22 -8 0 -12 -44 -10 -58 4 -27 27 -8
88 28 88 9 0 21 -5 28 -12z m98 -25 l16 -38 12 32 c14 41 31 56 22 21 -14 -59
-45 -118 -63 -118 -17 1 -17 1 0 14 21 16 21 33 2 79 -16 39 -18 47 -10 47 3
0 12 -17 21 -37z m191 -40 c-2 -16 -4 -3 -4 27 0 30 2 43 4 28 2 -16 2 -40 0
-55z m93 67 c0 -5 -6 -7 -13 -4 -20 7 -40 -21 -32 -46 4 -12 16 -25 28 -30 21
-8 21 -9 2 -9 -28 -1 -45 18 -45 49 0 14 5 31 12 38 14 14 48 16 48 2z m208
-40 c3 -44 2 -46 -26 -48 -37 -3 -60 21 -42 43 7 8 23 15 36 15 13 0 24 4 24
9 0 12 -29 23 -41 15 -5 -3 -9 0 -9 6 0 6 12 10 28 8 24 -3 27 -7 30 -48z m87
40 c4 -6 -3 -9 -16 -7 -30 3 -34 -16 -7 -28 33 -15 30 -49 -4 -53 -16 -2 -28
2 -28 8 0 6 5 8 10 5 6 -4 19 -4 28 0 15 6 13 10 -12 30 -19 15 -27 29 -23 39
7 18 42 22 52 6z m203 -2 c21 -21 13 -38 -18 -38 -19 0 -30 -5 -30 -14 0 -17
25 -27 47 -19 11 4 14 3 9 -5 -13 -22 -56 -14 -68 13 -22 49 25 98 60 63z
m102 1 c0 -5 -4 -8 -9 -5 -19 12 -41 -7 -41 -34 0 -22 6 -31 28 -38 l27 -10
-27 -1 c-43 -1 -64 52 -32 83 17 18 54 22 54 5z m96 -44 l2 -50 -7 45 c-5 36
-10 45 -26 45 -16 0 -21 -8 -23 -42 -4 -59 -22 -54 -22 6 l0 49 38 -1 37 -2 1
-50z m54 5 c0 -27 -4 -50 -10 -50 -5 0 -10 23 -10 50 0 28 5 50 10 50 6 0 10
-22 10 -50z m90 39 c0 -5 -4 -8 -9 -5 -19 12 -41 -7 -41 -34 0 -22 6 -31 28
-38 l27 -10 -27 -1 c-43 -1 -64 52 -32 83 17 18 54 22 54 5z m88 -1 c7 -7 12
-29 12 -49 0 -36 -1 -37 -37 -36 -31 2 -39 6 -41 25 -3 18 2 23 28 28 34 7 35
30 1 27 -13 -2 -20 1 -16 7 8 14 38 13 53 -2z m92 3 c0 -5 -8 -7 -19 -4 -30 8
-35 -16 -6 -27 31 -12 43 -39 24 -51 -19 -12 -59 -11 -59 1 0 6 11 8 25 4 18
-4 25 -2 25 8 0 8 -11 20 -25 26 -27 12 -33 37 -12 45 21 9 47 8 47 -2z m140
-2 c0 -5 -4 -8 -9 -5 -19 12 -41 -7 -41 -34 0 -22 6 -31 28 -38 l27 -10 -27
-1 c-43 -1 -64 52 -32 83 17 18 54 22 54 5z m128 -1 c7 -7 12 -28 12 -47 0
-34 -2 -36 -35 -39 -24 -1 -37 3 -41 13 -8 20 13 45 38 45 11 0 18 5 15 13 -2
6 -12 11 -21 11 -9 -1 -16 2 -16 7 0 13 34 11 48 -3z m73 -4 c-12 -9 -21 -29
-24 -52 -3 -32 -4 -30 -5 13 -2 47 -1 50 24 51 25 2 25 2 5 -12z m97 4 c7 -7
12 -28 12 -47 0 -34 -2 -36 -35 -39 -24 -1 -37 3 -41 13 -8 20 13 45 38 45 11
0 18 5 15 13 -2 6 -12 11 -21 11 -9 -1 -16 2 -16 7 0 13 34 11 48 -3z m92 3
c0 -5 -9 -7 -20 -4 -28 7 -26 -20 2 -32 34 -15 35 -43 3 -51 -16 -4 -31 -2
-38 5 -9 10 -6 11 14 6 39 -10 45 11 9 30 -31 16 -40 39 -17 48 21 9 47 8 47
-2z m-3239 -104 c-8 -8 -11 -7 -11 4 0 20 13 34 18 19 3 -7 -1 -17 -7 -23z
m939 -142 c-7 -9 -15 -13 -17 -11 -7 7 7 26 19 26 6 0 6 -6 -2 -15z m-1950 -5
c0 -5 -4 -10 -10 -10 -5 0 -10 5 -10 10 0 6 5 10 10 10 6 0 10 -4 10 -10z
m390 -23 c12 -4 11 -6 -2 -6 -14 -1 -18 -10 -18 -36 0 -22 6 -38 18 -45 15
-10 15 -10 -3 -8 -15 3 -21 13 -26 48 -6 46 -1 79 10 62 3 -5 13 -12 21 -15z
m428 3 c15 -1 15 -2 0 -11 -11 -6 -18 -22 -18 -39 0 -17 7 -34 18 -40 15 -10
15 -10 -3 -8 -16 3 -21 13 -25 50 -6 47 -1 85 8 61 2 -7 11 -13 20 -13z
m-1508 -25 c14 -37 -3 -75 -35 -75 -18 0 -25 -5 -25 -20 0 -11 -4 -20 -10 -20
-6 0 -10 29 -10 68 l0 68 35 2 c30 2 37 -1 45 -23z m98 -25 c3 -44 2 -46 -26
-48 -37 -3 -60 21 -42 43 7 8 24 15 37 15 21 0 23 3 13 14 -6 8 -18 12 -26 9
-8 -3 -14 0 -14 7 0 6 11 10 28 8 24 -3 27 -7 30 -48z m75 38 c-18 -9 -23 -19
-23 -50 0 -21 -4 -38 -10 -38 -5 0 -10 21 -10 48 0 46 1 47 33 49 30 1 30 1
10 -9z m95 -38 c3 -44 2 -46 -26 -48 -37 -3 -60 21 -42 43 7 8 24 15 37 15 21
0 23 3 13 14 -6 8 -18 12 -26 9 -8 -3 -14 0 -14 7 0 6 11 10 28 8 24 -3 27 -7
30 -48z m136 44 c9 -3 16 -15 16 -25 0 -14 -7 -19 -30 -19 -16 0 -30 -4 -30
-9 0 -16 28 -31 46 -25 15 6 17 4 7 -6 -18 -19 -62 -4 -69 24 -11 46 19 76 60
60z m126 -66 c0 -39 -4 -68 -10 -68 -5 0 -10 11 -10 24 0 19 -4 22 -25 19 -33
-7 -54 34 -37 72 10 21 18 25 47 23 l35 -3 0 -67z m65 -13 c16 0 21 8 23 43 4
58 22 53 22 -7 l0 -49 -37 1 -38 2 -1 50 -2 50 7 -45 c5 -36 10 -45 26 -45z
m95 35 c0 -27 -4 -50 -10 -50 -5 0 -10 23 -10 50 0 28 5 50 10 50 6 0 10 -22
10 -50z m96 39 c19 -15 18 -63 -1 -79 -8 -7 -24 -10 -34 -7 -15 4 -21 -1 -24
-22 -2 -14 -5 6 -6 44 -1 70 -1 71 25 73 15 1 33 -3 40 -9z m102 -1 c7 -7 12
-29 12 -49 0 -36 -1 -37 -37 -36 -31 2 -39 6 -41 25 -3 18 2 23 28 28 34 7 35
30 1 27 -13 -2 -20 1 -16 7 8 14 38 13 53 -2z m75 -3 c-14 -10 -23 -29 -26
-53 -3 -32 -4 -30 -5 13 -2 48 -1 51 25 53 28 2 28 2 6 -13z m182 -70 c16 0
21 8 23 43 4 58 22 53 22 -7 l0 -49 -37 1 -38 2 -1 50 -2 50 7 -45 c5 -36 10
-45 26 -45z m183 73 c7 -7 12 -29 12 -49 0 -36 -1 -37 -37 -36 -31 2 -39 6
-41 25 -3 18 2 23 28 28 34 7 35 30 1 27 -13 -2 -20 1 -16 7 8 14 38 13 53 -2z
m54 -30 c2 -35 7 -43 23 -43 16 0 21 8 23 43 4 58 22 53 22 -6 0 -49 0 -49
-35 -50 -39 -2 -55 17 -55 67 0 47 18 37 22 -11z m227 28 c31 -37 -9 -103 -46
-80 -37 23 -24 94 17 94 10 0 23 -6 29 -14z m147 7 c-7 -8 -11 -9 -37 -12 -5
0 -9 -15 -7 -33 2 -25 9 -34 28 -39 l25 -7 -27 -1 c-17 -1 -31 6 -38 18 -23
44 -5 81 39 81 13 0 21 -3 17 -7z m93 -7 c31 -37 -9 -103 -46 -80 -37 23 -24
94 17 94 10 0 23 -6 29 -14z m118 -41 l1 -50 -7 42 c-8 49 -14 58 -36 50 -10
-4 -15 -20 -15 -47 0 -22 -4 -40 -10 -40 -5 0 -10 22 -10 48 l0 48 38 -1 37 0
2 -50z m149 44 c19 -15 18 -63 -1 -79 -8 -7 -24 -10 -34 -7 -15 4 -21 -1 -24
-22 -2 -14 -5 6 -6 44 -1 70 -1 71 25 73 15 1 33 -3 40 -9z m75 -5 c-12 -9
-21 -29 -24 -52 -3 -32 -4 -30 -5 13 -2 47 -1 50 24 51 25 2 25 2 5 -12z m93
10 c9 -3 16 -15 16 -25 0 -14 -7 -19 -30 -19 -16 0 -30 -4 -30 -9 0 -16 28
-31 46 -25 15 6 17 4 7 -6 -18 -20 -60 -4 -67 25 -12 47 16 75 58 59z m106 -5
c0 -5 -4 -8 -9 -5 -19 12 -41 -7 -41 -34 0 -22 6 -31 28 -38 l27 -10 -27 -1
c-43 -1 -64 52 -32 83 17 18 54 22 54 5z m37 -66 c-2 -16 -4 -3 -4 27 0 30 2
43 4 28 2 -16 2 -40 0 -55z m88 67 c4 -6 -3 -9 -16 -7 -30 3 -34 -16 -7 -28
33 -15 30 -49 -4 -53 -16 -2 -28 2 -28 8 0 6 5 8 10 5 6 -4 19 -4 28 0 15 6
13 10 -12 30 -19 15 -27 29 -23 39 7 18 42 22 52 6z m42 -67 c-2 -16 -4 -3 -4
27 0 30 2 43 4 28 2 -16 2 -40 0 -55z m102 63 c31 -37 -9 -103 -46 -80 -37 23
-24 94 17 94 10 0 23 -6 29 -14z m118 -41 l1 -50 -7 42 c-8 49 -14 58 -36 50
-10 -4 -15 -20 -15 -47 0 -22 -4 -40 -10 -40 -5 0 -10 22 -10 48 l0 48 38 -1
37 0 2 -50z m53 -35 c0 -5 -4 -10 -10 -10 -5 0 -10 5 -10 10 0 6 5 10 10 10 6
0 10 -4 10 -10z m5264 -296 c33 -32 8 -84 -40 -84 -22 0 -24 4 -24 50 0 46 2
50 24 50 14 0 32 -7 40 -16z m93 -61 c-2 -16 -4 -3 -4 27 0 30 2 43 4 28 2
-16 2 -40 0 -55z m103 70 c-8 -3 -22 -11 -30 -17 -13 -10 -13 -9 -1 7 7 9 21
17 30 16 13 0 14 -1 1 -6z m135 0 c-11 -3 -27 -10 -35 -17 -13 -10 -13 -9 -1
7 7 9 23 16 35 16 20 -1 20 -2 1 -6z m132 1 c-3 -3 -12 -4 -19 -1 -8 3 -5 6 6
6 11 1 17 -2 13 -5z m237 -10 c33 -32 8 -84 -40 -84 -22 0 -24 4 -24 50 0 46
2 50 24 50 14 0 32 -7 40 -16z m119 9 c-13 -2 -23 -11 -23 -19 0 -8 10 -15 23
-15 l22 -2 -22 -4 c-14 -3 -23 -12 -23 -23 0 -11 9 -20 23 -23 19 -4 18 -4 -5
-6 -27 -1 -28 1 -28 49 0 48 1 50 28 49 23 -2 24 -2 5 -6z m210 0 c-7 -2 -21
-2 -30 0 -10 3 -4 5 12 5 17 0 24 -2 18 -5z m95 0 c-10 -2 -18 -13 -18 -24 0
-11 7 -19 18 -20 15 -1 15 -2 0 -6 -9 -2 -19 -14 -21 -26 -2 -12 -5 2 -6 31
-1 48 1 52 22 51 16 -1 18 -2 5 -6z m135 0 c-13 -2 -23 -11 -23 -19 0 -8 10
-15 23 -15 l22 -2 -22 -4 c-14 -3 -23 -12 -23 -23 0 -11 9 -20 23 -23 19 -4
18 -4 -5 -6 -27 -1 -28 1 -28 49 0 48 1 50 28 49 23 -2 24 -2 5 -6z m129 -48
c5 -11 -2 -6 -16 10 -14 17 -25 35 -25 40 0 11 25 -20 41 -50z m155 49 c-3 -3
-12 -4 -19 -1 -8 3 -5 6 6 6 11 1 17 -2 13 -5z m-1053 -65 c-8 -17 -9 -13 -9
21 0 34 1 38 9 21 5 -13 5 -29 0 -42z m663 29 c-3 -7 -5 -2 -5 12 0 14 2 19 5
13 2 -7 2 -19 0 -25z m417 -29 c-8 -17 -9 -13 -9 21 0 34 1 38 9 21 5 -13 5
-29 0 -42z m-1157 9 c-3 -7 -5 -2 -5 12 0 14 2 19 5 13 2 -7 2 -19 0 -25z
m1080 0 c-3 -7 -5 -2 -5 12 0 14 2 19 5 13 2 -7 2 -19 0 -25z m-474 15 c-7 -2
-19 -2 -25 0 -7 3 -2 5 12 5 14 0 19 -2 13 -5z m-805 -34 c-3 -8 -7 -3 -11 10
-4 17 -3 21 5 13 5 -5 8 -16 6 -23z m117 -17 c-6 -7 -45 9 -45 18 0 4 11 3 24
-3 14 -7 23 -13 21 -15z m823 3 c-3 -3 -9 2 -12 12 -6 14 -5 15 5 6 7 -7 10
-15 7 -18z m262 5 c0 -5 -2 -10 -4 -10 -3 0 -8 5 -11 10 -3 6 -1 10 4 10 6 0
11 -4 11 -10z m-1223 -6 c-3 -3 -12 -4 -19 -1 -8 3 -5 6 6 6 11 1 17 -2 13 -5z
m270 0 c-3 -3 -12 -4 -19 -1 -8 3 -5 6 6 6 11 1 17 -2 13 -5z m1080 0 c-3 -3
-12 -4 -19 -1 -8 3 -5 6 6 6 11 1 17 -2 13 -5z m-8212 -49 c25 -24 25 -25 25
-225 0 -200 0 -201 -25 -225 -22 -23 -32 -25 -107 -24 -46 1 -94 5 -108 9
l-25 8 25 2 c14 1 19 4 11 7 -11 5 -11 7 0 14 10 6 7 9 -11 10 l-25 1 25 8
c14 4 18 9 10 9 -13 1 -13 2 0 11 12 8 10 10 -10 11 l-25 1 25 8 c14 4 18 9
10 9 -13 1 -13 2 0 11 13 9 13 10 0 10 -13 0 -13 1 0 10 12 8 10 10 -10 11
l-25 1 25 8 c14 4 18 9 10 9 -13 1 -13 2 0 11 11 7 -1 10 -40 11 -30 0 -86 1
-125 2 l-70 2 -3 33 c-3 28 -7 32 -30 31 -27 0 -27 0 -4 -11 35 -17 26 -52
-15 -56 -24 -2 -33 1 -33 11 0 10 7 14 23 11 l22 -5 -22 17 c-13 9 -23 25 -23
35 0 15 8 19 40 19 22 0 40 5 40 10 0 6 7 10 15 10 8 0 15 -4 15 -10 0 -5 7
-10 15 -10 8 0 15 -4 15 -10 0 -5 -7 -10 -15 -10 -9 0 -15 -9 -15 -25 0 -16 6
-25 15 -25 9 0 15 9 15 23 0 37 14 49 56 47 79 -5 140 0 124 10 -13 9 -13 10
0 11 8 0 4 5 -10 9 l-25 8 25 1 c20 1 22 3 10 11 -13 9 -13 10 0 11 8 0 4 5
-10 9 l-25 8 25 1 c20 1 22 3 10 11 -13 9 -13 10 0 11 8 0 4 5 -10 9 l-25 8
25 1 c20 1 22 3 10 11 -13 9 -13 10 0 11 8 0 4 5 -10 9 l-25 8 25 1 c20 1 22
3 10 11 -13 9 -13 10 0 11 8 0 4 5 -10 9 l-25 8 25 1 c20 1 22 3 10 11 -10 7
16 10 83 10 91 0 100 -2 122 -25z m6795 -99 c0 -19 4 -23 20 -19 28 7 50 -14
50 -47 0 -35 -17 -49 -58 -48 l-32 1 0 69 c0 39 4 68 10 68 6 0 10 -11 10 -24z
m960 14 c0 -5 -7 -10 -15 -10 -8 0 -15 5 -15 10 0 6 7 10 15 10 8 0 15 -4 15
-10z m460 0 c0 -5 -4 -10 -10 -10 -5 0 -10 5 -10 10 0 6 5 10 10 10 6 0 10 -4
10 -10z m-1640 -9 c0 -6 -15 -11 -32 -13 -31 -3 -33 -5 -33 -43 0 -38 2 -40
33 -43 39 -4 33 -22 -8 -22 -54 0 -79 71 -40 110 20 20 80 28 80 11z m680 0
c0 -6 -15 -11 -32 -13 -31 -3 -33 -5 -33 -43 0 -38 2 -40 33 -43 39 -4 33 -22
-8 -22 -54 0 -79 71 -40 110 20 20 80 28 80 11z m730 -1 c0 -5 -11 -10 -25
-10 -34 0 -31 -21 5 -42 33 -19 38 -39 16 -57 -18 -15 -68 -11 -74 6 -2 9 5
11 27 7 24 -5 31 -3 31 10 0 9 -4 16 -10 16 -5 0 -19 9 -30 20 -28 28 -11 60
30 60 17 0 30 -4 30 -10z m-1316 -36 c3 -9 6 -30 6 -48 0 -30 -3 -33 -32 -34
-18 0 -38 4 -45 10 -19 16 3 48 33 48 14 0 22 4 19 10 -3 6 -15 10 -26 10 -10
0 -19 5 -19 10 0 17 57 12 64 -6z m79 -1 c-16 -11 -23 -25 -23 -49 0 -24 -5
-34 -15 -34 -11 0 -15 12 -15 48 l0 48 38 1 c36 1 36 1 15 -14z m215 5 c7 -7
12 -24 12 -38 0 -31 -17 -50 -45 -50 -28 0 -45 19 -45 50 0 31 17 50 45 50 12
0 26 -5 33 -12z m120 -40 c2 -29 -1 -48 -7 -48 -6 0 -11 18 -11 40 0 33 -3 40
-20 40 -17 0 -20 -7 -20 -40 0 -29 -4 -40 -15 -40 -11 0 -15 12 -15 49 l0 49
43 -2 42 -1 3 -47z m260 40 c7 -7 12 -20 12 -30 0 -13 -8 -18 -30 -18 -40 0
-38 -18 3 -22 25 -3 28 -6 14 -12 -47 -22 -93 26 -67 73 12 23 49 28 68 9z
m85 -5 c-16 -11 -23 -25 -23 -49 0 -24 -5 -34 -15 -34 -11 0 -15 12 -15 48 l0
48 38 1 c36 1 36 1 15 -14z m95 -33 l3 -46 -38 1 c-32 0 -39 4 -41 23 -3 18 2
23 27 28 37 8 41 24 5 24 -15 0 -23 4 -19 11 4 5 19 9 33 7 24 -3 27 -8 30
-48z m170 38 c18 -15 16 -88 -3 -88 -11 0 -15 11 -15 40 0 29 -4 40 -15 40
-11 0 -15 -11 -15 -40 0 -29 -4 -40 -15 -40 -11 0 -15 11 -15 40 0 28 -4 40
-14 40 -16 0 -26 -21 -26 -56 0 -13 -4 -24 -10 -24 -5 0 -10 22 -10 49 l0 48
63 0 c34 0 68 -4 75 -9z m62 -38 c0 -38 -4 -50 -15 -50 -11 0 -15 12 -15 50 0
38 4 50 15 50 11 0 15 -12 15 -50z m90 41 c0 -5 -10 -11 -22 -13 -17 -2 -23
-10 -23 -28 0 -18 6 -26 23 -28 29 -4 29 -22 -1 -22 -30 0 -47 18 -47 50 0 14
5 31 12 38 14 14 58 16 58 3z m238 -3 c7 -7 12 -20 12 -30 0 -13 -8 -18 -30
-18 -40 0 -38 -18 3 -22 25 -3 28 -6 14 -12 -47 -22 -93 26 -67 73 12 23 49
28 68 9z m92 4 c0 -4 -9 -13 -20 -20 -13 -8 -20 -23 -20 -42 0 -17 -4 -30 -10
-30 -5 0 -10 22 -10 48 0 47 1 49 30 50 17 0 30 -2 30 -6z m40 -42 c0 -27 -4
-50 -10 -50 -5 0 -10 23 -10 50 0 28 5 50 10 50 6 0 10 -22 10 -50z m98 38 c7
-7 12 -20 12 -30 0 -13 -8 -18 -30 -18 -40 0 -38 -18 3 -22 25 -3 28 -6 14
-12 -47 -22 -93 26 -67 73 12 23 49 28 68 9z m97 3 c3 -5 -7 -11 -22 -13 l-28
-4 28 -14 c40 -20 34 -54 -10 -58 -19 -2 -33 1 -33 7 0 6 12 11 28 11 l27 0
-29 23 c-20 16 -27 29 -23 40 7 18 52 23 62 8z m-9653 -82 l14 -42 12 42 c7
22 19 41 27 41 11 0 10 -12 -7 -60 -11 -33 -26 -60 -33 -60 -7 0 -22 27 -33
60 -16 47 -18 60 -7 60 7 0 20 -19 27 -41z m1738 32 c-37 -10 -39 -41 -3 -42
28 -1 28 -1 3 -8 -16 -4 -25 -14 -25 -26 0 -12 9 -22 25 -26 23 -6 22 -7 -7
-8 l-33 -1 0 60 0 60 33 -1 c29 -1 30 -2 7 -8z m237 -83 c-2 -18 -4 -4 -4 32
0 36 2 50 4 33 2 -18 2 -48 0 -65z m713 32 c0 -33 -4 -60 -10 -60 -6 0 -10 27
-10 60 0 33 4 60 10 60 6 0 10 -27 10 -60z m-130 27 c12 -4 11 -6 -2 -6 -13
-1 -18 -9 -18 -31 0 -17 7 -34 18 -40 15 -10 15 -10 -3 -8 -15 3 -21 13 -25
44 -6 44 -2 73 9 57 3 -6 13 -13 21 -16z m-2422 -9 c22 -22 14 -48 -15 -49
l-28 -2 28 -4 c15 -2 27 -9 27 -14 0 -13 -54 -11 -68 3 -13 13 -16 60 -5 71
11 11 48 8 61 -5z m82 3 c0 -5 -7 -11 -15 -15 -9 -3 -15 -18 -15 -36 0 -20 -5
-30 -15 -30 -11 0 -15 12 -15 45 0 43 1 45 30 45 17 0 30 -4 30 -9z m191 -7
c16 -19 5 -42 -23 -47 -20 -4 -19 -4 5 -6 37 -1 25 -21 -13 -21 -34 0 -55 29
-45 61 6 18 5 19 -14 10 -14 -8 -21 -21 -21 -41 0 -20 -5 -30 -15 -30 -11 0
-15 12 -15 45 l0 44 64 0 c43 -1 69 -5 77 -15z m97 4 c27 -27 7 -78 -30 -78
-11 0 -18 -7 -18 -20 0 -11 -7 -20 -15 -20 -12 0 -15 14 -15 65 l0 65 33 0
c18 0 38 -5 45 -12z m52 -24 c0 -45 24 -42 28 4 3 33 32 47 32 15 0 -15 1 -15
13 1 9 12 23 17 42 14 24 -2 31 -8 33 -30 3 -24 0 -28 -25 -29 l-28 -2 28 -4
c39 -6 34 -23 -8 -23 -22 0 -38 6 -44 18 -10 16 -10 16 -11 -1 0 -15 -7 -18
-42 -15 -43 3 -43 3 -46 46 -2 33 0 42 12 42 12 0 16 -10 16 -36z m1263 21 c4
8 11 15 17 15 7 0 5 -9 -4 -22 -14 -20 -14 -24 -1 -45 9 -13 11 -23 6 -23 -5
0 -12 7 -15 16 -6 15 -8 15 -26 -1 -23 -20 -26 -14 -8 15 10 15 10 22 0 32
-20 20 -14 33 7 14 16 -15 19 -15 24 -1z m117 -10 c4 -11 3 -31 -1 -44 -7 -18
-15 -22 -34 -19 -20 4 -25 0 -28 -21 -2 -14 -5 4 -6 40 l-1 66 31 -1 c22 -1
34 -7 39 -21z m130 11 c28 -35 -11 -93 -47 -70 -36 22 -23 84 17 84 10 0 23
-7 30 -14z m67 -1 c-10 -7 -17 -26 -17 -44 0 -17 -4 -31 -10 -31 -5 0 -10 20
-10 44 0 41 2 44 27 44 24 0 25 -2 10 -13z m91 -31 c3 -40 3 -41 -30 -40 -45
1 -52 34 -9 42 21 4 28 11 24 21 -3 8 -14 13 -24 10 -11 -3 -16 -1 -13 5 3 5
16 8 27 6 18 -2 23 -11 25 -44z m59 31 c-10 -7 -17 -26 -17 -44 0 -17 -4 -31
-10 -31 -5 0 -10 20 -10 44 0 41 2 44 27 44 24 0 25 -2 10 -13z m117 5 c-29
-11 -37 -26 -29 -51 5 -14 12 -18 26 -14 11 4 19 2 19 -4 0 -12 -20 -14 -44
-5 -19 7 -21 55 -4 72 7 7 21 12 33 11 19 0 19 0 -1 -9z m94 -36 c3 -40 3 -41
-30 -40 -46 1 -52 34 -9 42 37 8 40 21 9 34 -23 10 -23 10 2 7 22 -2 25 -8 28
-43z m146 30 c3 -9 6 -29 6 -45 0 -28 -2 -30 -32 -27 -25 2 -33 8 -33 23 0 13
8 21 23 23 12 2 22 10 22 19 0 10 -6 14 -20 10 -11 -3 -20 -1 -20 4 0 16 48
10 54 -7z m136 2 c28 -35 -11 -93 -47 -70 -36 22 -23 84 17 84 10 0 23 -7 30
-14z m92 -12 c-3 -15 -13 -29 -23 -31 -25 -7 -24 -23 0 -23 11 0 23 -5 26 -10
11 -18 -17 -41 -44 -38 -21 2 -26 8 -23 28 1 14 2 38 3 54 0 40 5 46 38 46 25
0 28 -3 23 -26z m88 12 c28 -35 -11 -93 -47 -70 -36 22 -23 84 17 84 10 0 23
-7 30 -14z"/>
<path d="M3383 6143 c-20 -8 -15 -23 7 -23 11 0 20 7 20 15 0 15 -6 17 -27 8z"/>
<path d="M3780 6150 c0 -23 4 -30 20 -30 16 0 20 7 20 30 0 23 -4 30 -20 30
-16 0 -20 -7 -20 -30z"/>
<path d="M3900 6150 c0 -25 4 -31 18 -28 11 2 17 12 17 28 0 16 -6 26 -17 28
-14 3 -18 -3 -18 -28z"/>
<path d="M8967 6132 c-19 -20 -27 -39 -27 -65 0 -48 27 -52 32 -4 2 27 7 32
28 32 21 0 26 -5 28 -32 5 -49 32 -44 32 5 0 27 -7 44 -22 59 -37 33 -44 34
-71 5z"/>
<path d="M8980 6055 c0 -18 5 -25 20 -25 15 0 20 7 20 25 0 18 -5 25 -20 25
-15 0 -20 -7 -20 -25z"/>
<path d="M10962 6098 c3 -20 10 -23 49 -26 43 -3 47 -1 51 23 5 24 4 25 -49
25 -51 0 -54 -2 -51 -22z"/>
<path d="M12817 6144 c-14 -14 -7 -35 11 -32 9 2 17 10 17 17 0 16 -18 25 -28
15z"/>
<path d="M9790 6135 c0 -8 7 -15 15 -15 8 0 15 7 15 15 0 8 -7 15 -15 15 -8 0
-15 -7 -15 -15z"/>
<path d="M9880 6045 c0 -8 7 -15 15 -15 8 0 15 7 15 15 0 8 -7 15 -15 15 -8 0
-15 -7 -15 -15z"/>
<path d="M13050 6109 c0 -12 5 -19 12 -17 18 6 20 25 3 31 -10 5 -15 0 -15
-14z"/>
<path d="M9454 6095 c-9 -21 3 -45 21 -45 10 0 15 10 15 30 0 32 -26 43 -36
15z"/>
<path d="M10124 6095 c-8 -21 2 -45 20 -45 17 0 28 24 20 45 -4 8 -13 15 -20
15 -8 0 -17 -7 -20 -15z"/>
<path d="M10344 6095 c-8 -21 3 -48 19 -43 19 7 22 58 2 58 -8 0 -18 -7 -21
-15z"/>
<path d="M10425 6071 c-3 -5 -1 -12 5 -16 12 -7 30 2 30 16 0 12 -27 12 -35 0z"/>
<path d="M10560 6065 c0 -8 7 -15 15 -15 8 0 15 7 15 15 0 8 -7 15 -15 15 -8
0 -15 -7 -15 -15z"/>
<path d="M11280 6065 c0 -8 7 -15 15 -15 8 0 15 7 15 15 0 8 -7 15 -15 15 -8
0 -15 -7 -15 -15z"/>
<path d="M11564 6096 c-8 -22 3 -49 19 -43 6 2 12 14 12 27 0 27 -22 39 -31
16z"/>
<path d="M12220 6080 c0 -25 4 -31 18 -28 11 2 17 12 17 28 0 16 -6 26 -17 28
-14 3 -18 -3 -18 -28z"/>
<path d="M12307 6103 c-13 -12 -7 -33 8 -33 8 0 15 9 15 20 0 20 -11 26 -23
13z"/>
<path d="M12295 6030 c-8 -12 20 -24 35 -15 5 3 10 10 10 16 0 12 -37 12 -45
-1z"/>
<path d="M13135 6100 c-3 -5 1 -10 10 -10 9 0 13 5 10 10 -3 6 -8 10 -10 10
-2 0 -7 -4 -10 -10z"/>
<path d="M13210 6089 c0 -11 5 -17 10 -14 6 3 10 13 10 21 0 8 -4 14 -10 14
-5 0 -10 -9 -10 -21z"/>
<path d="M13205 6031 c-7 -12 12 -24 25 -16 11 7 4 25 -10 25 -5 0 -11 -4 -15
-9z"/>
<path d="M13503 6073 c-15 -5 -17 -23 -4 -23 5 0 11 7 15 15 3 8 4 15 3 14 -1
0 -8 -3 -14 -6z"/>
<path d="M11503 4265 c-134 -24 -285 -85 -393 -158 -66 -45 -196 -173 -245
-242 -115 -162 -185 -379 -185 -575 0 -187 67 -403 173 -560 45 -66 173 -196
242 -245 211 -151 486 -214 736 -170 220 38 396 132 550 291 85 89 121 139
169 234 168 332 139 725 -75 1025 -49 69 -179 197 -245 242 -208 141 -488 202
-727 158z m-110 -376 c69 -32 48 -139 -28 -139 -70 0 -103 87 -49 129 30 24
43 26 77 10z m631 -10 c54 -42 21 -129 -49 -129 -74 0 -98 106 -31 138 32 16
51 14 80 -9z m-917 -541 c29 -27 29 -65 1 -95 -45 -48 -128 -18 -128 47 0 64
79 93 127 48z m1233 2 c44 -44 11 -120 -52 -120 -39 0 -78 34 -78 69 0 61 86
95 130 51z m-928 -527 c37 -42 28 -101 -19 -122 -34 -16 -47 -14 -77 10 -54
42 -21 129 49 129 18 0 39 -8 47 -17z m616 -3 c32 -30 30 -82 -4 -109 -30 -24
-43 -26 -77 -10 -69 32 -48 139 28 139 18 0 41 -9 53 -20z"/>
<path d="M11314 3855 c-21 -31 -15 -53 19 -79 26 -19 30 -19 55 -5 33 18 42
68 17 93 -25 25 -72 20 -91 -9z"/>
<path d="M11935 3864 c-25 -25 -16 -75 17 -93 25 -14 29 -14 55 5 34 26 40 48
19 79 -19 29 -66 34 -91 9z"/>
<path d="M11015 3336 c-11 -8 -18 -26 -18 -46 0 -54 61 -81 96 -42 50 55 -19
132 -78 88z"/>
<path d="M12247 3332 c-22 -24 -21 -65 1 -85 40 -36 95 -11 95 43 0 54 -61 81
-96 42z"/>
<path d="M11326 2799 c-30 -23 -33 -45 -10 -77 18 -26 65 -30 88 -6 24 23 20
70 -6 88 -29 21 -40 20 -72 -5z"/>
<path d="M11942 2804 c-26 -18 -30 -65 -6 -88 23 -24 70 -20 88 6 23 32 20 54
-10 77 -32 25 -43 26 -72 5z"/>
<path d="M2840 4050 c0 -41 8 -47 41 -30 34 19 18 70 -23 70 -14 0 -18 -8 -18
-40z"/>
<path d="M3167 4019 c-28 -16 -20 -29 18 -29 38 0 46 13 17 29 -11 6 -24 6
-35 0z"/>
<path d="M3470 4010 c-10 -6 -15 -25 -15 -55 0 -51 17 -70 47 -54 31 16 21
120 -11 119 -4 0 -13 -5 -21 -10z"/>
<path d="M4098 4023 c-34 -8 -20 -33 17 -33 19 0 35 4 35 10 0 13 -32 27 -52
23z"/>
<path d="M4857 4013 c-4 -3 -7 -30 -7 -60 0 -57 17 -76 49 -56 20 12 27 89 10
109 -12 15 -41 19 -52 7z"/>
<path d="M5555 4003 c-20 -19 -15 -90 6 -104 26 -16 49 10 49 54 0 61 -23 82
-55 50z"/>
<path d="M6077 4019 c-28 -16 -20 -29 18 -29 38 0 46 13 17 29 -11 6 -24 6
-35 0z"/>
<path d="M3091 3521 c-25 -46 -3 -117 34 -110 23 5 37 53 27 94 -10 37 -45 46
-61 16z"/>
<path d="M3844 3533 c-17 -17 -17 -18 4 -21 12 -2 32 -2 44 0 21 3 21 4 4 21
-10 9 -21 17 -26 17 -5 0 -16 -8 -26 -17z"/>
<path d="M4627 3539 c-28 -16 -20 -29 18 -29 38 0 46 13 17 29 -11 6 -24 6
-35 0z"/>
<path d="M5553 3453 c-7 -2 -13 -14 -13 -24 0 -31 54 -22 58 9 3 22 -14 28
-45 15z"/>
<path d="M4784 2965 c-9 -23 3 -45 24 -45 23 0 42 19 42 42 0 23 -58 26 -66 3z"/>
<path d="M5792 3058 c-21 -21 -13 -28 28 -28 22 0 40 4 40 8 0 14 -23 32 -40
32 -9 0 -21 -5 -28 -12z"/>
<path d="M6077 2973 c-12 -12 -7 -43 7 -49 22 -8 56 14 56 36 0 15 -7 20 -28
20 -16 0 -32 -3 -35 -7z"/>
<path d="M3377 2513 c-10 -10 -8 -61 2 -67 17 -11 41 6 41 28 0 32 -27 56 -43
39z"/>
<path d="M5610 2505 c-15 -18 -5 -65 15 -65 23 0 38 36 25 60 -13 24 -23 25
-40 5z"/>
<path d="M2740 2525 c0 -18 5 -25 20 -25 25 0 38 29 19 41 -25 15 -39 10 -39
-16z"/>
<path d="M2740 2465 c0 -18 5 -25 19 -25 26 0 44 23 29 38 -22 22 -48 14 -48
-13z"/>
<path d="M3050 2501 c-12 -24 3 -65 22 -59 22 8 34 37 22 55 -16 25 -31 27
-44 4z"/>
<path d="M3277 2513 c-14 -13 -6 -23 19 -23 22 0 25 2 14 15 -14 16 -23 19
-33 8z"/>
<path d="M3480 2467 c0 -19 10 -27 26 -20 21 8 17 33 -6 33 -11 0 -20 -6 -20
-13z"/>
<path d="M3850 2505 c-11 -13 -9 -15 15 -15 16 0 25 5 23 12 -7 19 -24 20 -38
3z"/>
<path d="M4035 2510 c-4 -7 -3 -16 3 -22 14 -14 45 -2 40 15 -6 16 -34 21 -43
7z"/>
<path d="M4030 2415 c0 -12 7 -15 25 -13 14 2 26 8 26 13 0 6 -12 11 -26 13
-18 2 -25 -1 -25 -13z"/>
<path d="M4140 2505 c-11 -13 -9 -15 15 -15 16 0 25 5 23 12 -7 19 -24 20 -38
3z"/>
<path d="M4423 2513 c-22 -8 -14 -23 12 -23 14 0 25 4 25 9 0 11 -21 19 -37
14z"/>
<path d="M4763 2513 c-12 -4 -19 -63 -9 -63 2 0 11 -3 19 -6 22 -8 41 30 27
56 -11 20 -16 22 -37 13z"/>
<path d="M5182 2508 c-28 -28 3 -83 33 -58 8 7 15 20 15 29 0 17 -18 41 -30
41 -3 0 -11 -5 -18 -12z"/>
<path d="M5500 2467 c0 -19 10 -27 26 -20 21 8 17 33 -6 33 -11 0 -20 -6 -20
-13z"/>
<path d="M5760 2505 c-11 -13 -9 -15 15 -15 16 0 25 5 23 12 -7 19 -24 20 -38
3z"/>
<path d="M6344 2469 c-11 -18 13 -34 31 -19 8 7 15 16 15 21 0 13 -38 11 -46
-2z"/>
<path d="M6647 2513 c-14 -13 -6 -23 19 -23 22 0 25 2 14 15 -14 16 -23 19
-33 8z"/>
<path d="M7067 2466 c-6 -16 11 -26 31 -19 6 3 12 11 12 19 0 18 -36 18 -43 0z"/>
<path d="M7435 2470 c-3 -5 -4 -14 0 -20 8 -13 35 -1 35 16 0 16 -26 19 -35 4z"/>
<path d="M7605 2470 c-3 -5 -4 -14 0 -20 8 -13 35 -1 35 16 0 16 -26 19 -35 4z"/>
<path d="M2747 2234 c-11 -11 -8 -62 3 -69 18 -11 41 17 38 44 -3 25 -27 39
-41 25z"/>
<path d="M2844 2189 c-11 -18 13 -34 31 -19 8 7 15 16 15 21 0 13 -38 11 -46
-2z"/>
<path d="M3014 2189 c-11 -18 13 -34 31 -19 8 7 15 16 15 21 0 13 -38 11 -46
-2z"/>
<path d="M3173 2233 c-22 -8 -14 -23 12 -23 14 0 25 4 25 9 0 11 -21 19 -37
14z"/>
<path d="M3273 2233 c-7 -3 -13 -17 -13 -33 0 -28 14 -41 38 -33 6 3 12 17 12
33 0 28 -14 41 -37 33z"/>
<path d="M3535 2221 c-9 -30 4 -63 23 -59 12 2 17 14 17 38 0 40 -29 55 -40
21z"/>
<path d="M3640 2187 c0 -19 10 -27 26 -20 21 8 17 33 -6 33 -11 0 -20 -6 -20
-13z"/>
<path d="M4080 2187 c0 -19 10 -27 26 -20 21 8 17 33 -6 33 -11 0 -20 -6 -20
-13z"/>
<path d="M4362 2228 c-28 -28 3 -83 33 -58 8 7 15 20 15 29 0 17 -18 41 -30
41 -3 0 -11 -5 -18 -12z"/>
<path d="M4602 2228 c-28 -28 3 -83 33 -58 8 7 15 20 15 29 0 17 -18 41 -30
41 -3 0 -11 -5 -18 -12z"/>
<path d="M4872 2228 c-28 -28 3 -83 33 -58 8 7 15 20 15 29 0 17 -18 41 -30
41 -3 0 -11 -5 -18 -12z"/>
<path d="M5053 2233 c-22 -8 -14 -23 12 -23 14 0 25 4 25 9 0 11 -21 19 -37
14z"/>
<path d="M5412 2228 c-28 -28 3 -83 33 -58 8 7 15 20 15 29 0 17 -18 41 -30
41 -3 0 -11 -5 -18 -12z"/>
<path d="M10840 1830 c0 -37 2 -41 21 -38 30 4 47 33 33 56 -6 9 -21 18 -33
20 -19 3 -21 -1 -21 -38z"/>
<path d="M11540 1830 c0 -37 2 -41 21 -38 12 2 27 11 33 21 14 22 -3 51 -33
55 -19 3 -21 -1 -21 -38z"/>
<path d="M3990 1521 c-22 -6 -23 -8 -7 -14 10 -4 26 -7 35 -7 14 0 14 2 3 9
-11 7 -11 9 0 14 20 8 -1 6 -31 -2z"/>
<path d="M3874 1506 c-4 -10 -2 -22 4 -28 8 -8 13 -7 18 6 4 10 2 22 -4 28 -8
8 -13 7 -18 -6z"/>
<path d="M3937 1487 c-3 -8 4 -14 21 -15 14 -1 24 -1 21 1 -2 1 -11 8 -20 15
-13 10 -18 10 -22 -1z"/>
<path d="M11027 1585 c-9 -22 3 -46 22 -43 10 2 16 13 16 28 0 28 -29 40 -38
15z"/>
<path d="M10853 1563 c-18 -6 -16 -23 1 -23 17 0 30 16 19 23 -5 2 -14 2 -20
0z"/>
<path d="M11134 1586 c-9 -24 4 -48 23 -44 12 2 18 12 18 28 0 29 -32 41 -41
16z"/>
<path d="M11520 1590 c0 -5 9 -10 21 -10 11 0 17 5 14 10 -3 6 -13 10 -21 10
-8 0 -14 -4 -14 -10z"/>
<path d="M11703 1563 c-20 -8 -15 -23 7 -23 11 0 20 7 20 15 0 15 -6 17 -27 8z"/>
<path d="M12260 1590 c0 -5 9 -10 21 -10 11 0 17 5 14 10 -3 6 -13 10 -21 10
-8 0 -14 -4 -14 -10z"/>
<path d="M12490 1590 c0 -5 9 -10 21 -10 11 0 17 5 14 10 -3 6 -13 10 -21 10
-8 0 -14 -4 -14 -10z"/>
<path d="M3075 1510 c-3 -5 1 -10 9 -10 9 0 16 5 16 10 0 6 -4 10 -9 10 -6 0
-13 -4 -16 -10z"/>
<path d="M3345 1510 c-3 -5 1 -10 9 -10 9 0 16 5 16 10 0 6 -4 10 -9 10 -6 0
-13 -4 -16 -10z"/>
<path d="M3440 1495 c0 -17 5 -25 13 -22 6 2 12 12 12 22 0 10 -6 20 -12 23
-8 2 -13 -6 -13 -23z"/>
<path d="M3640 1510 c0 -5 5 -10 10 -10 6 0 10 5 10 10 0 6 -4 10 -10 10 -5 0
-10 -4 -10 -10z"/>
<path d="M4865 1509 c-9 -27 19 -59 36 -42 15 15 7 57 -13 61 -10 2 -19 -6
-23 -19z"/>
<path d="M5007 1524 c-11 -11 -8 -52 4 -60 6 -3 18 1 27 10 13 12 14 21 6 33
-12 20 -27 26 -37 17z"/>
<path d="M5160 1475 c0 -8 4 -15 9 -15 5 0 14 7 21 15 10 13 9 15 -9 15 -12 0
-21 -6 -21 -15z"/>
<path d="M5430 1474 c0 -9 7 -14 17 -12 25 5 28 28 4 28 -12 0 -21 -6 -21 -16z"/>
<path d="M5575 1481 c-3 -5 -1 -12 5 -16 12 -7 30 2 30 16 0 12 -27 12 -35 0z"/>
<path d="M5710 1514 c-10 -11 -11 -20 -3 -32 17 -27 38 -20 38 12 0 34 -16 44
-35 20z"/>
<path d="M5805 1520 c-7 -12 2 -30 16 -30 5 0 9 9 9 20 0 21 -15 27 -25 10z"/>
<path d="M5795 1440 c-8 -12 20 -24 35 -15 5 3 10 10 10 16 0 12 -37 12 -45
-1z"/>
<path d="M5897 1524 c-11 -11 -8 -52 4 -60 6 -3 18 1 27 10 13 12 14 21 6 33
-12 20 -27 26 -37 17z"/>
</g>
</svg>
