<?xml version="1.0" standalone="no"?>
<!DOCTYPE svg PUBLIC "-//W3C//DTD SVG 20010904//EN"
 "http://www.w3.org/TR/2001/REC-SVG-20010904/DTD/svg10.dtd">
<svg version="1.0" xmlns="http://www.w3.org/2000/svg"
 width="1660.000000pt" height="900.000000pt" viewBox="0 0 1660.000000 900.000000"
 preserveAspectRatio="xMidYMid meet">

<g transform="translate(0.000000,900.000000) scale(0.100000,-0.100000)"
fill="#000000" stroke="none">
<path d="M0 8955 l0 -45 8295 0 8295 0 0 -320 0 -320 -8295 0 -8295 0 0 -4135
0 -4135 4049 0 c4040 0 4049 0 4054 20 4 15 14 20 36 20 17 0 31 -5 31 -10 0
-6 -11 -8 -26 -4 -20 5 -25 3 -22 -7 6 -17 57 -24 71 -10 15 15 44 14 51 -1 5
-11 7 -10 12 0 3 6 15 12 27 12 18 0 19 -2 7 -10 -10 -7 -11 -10 -2 -10 7 0
21 6 32 12 16 10 24 10 40 0 27 -16 28 -16 33 16 l4 27 2 -27 c1 -36 18 -36
24 -1 l4 28 2 -27 1 -28 4085 0 4085 0 0 4500 0 4500 -8300 0 -8300 0 0 -45z
m6465 -3975 c39 -19 75 -63 75 -93 0 -10 -15 -17 -44 -21 -40 -6 -46 -4 -74
24 -26 25 -38 30 -81 30 -38 0 -56 -5 -71 -20 -45 -45 -12 -81 98 -105 142
-31 198 -82 189 -172 -10 -93 -77 -136 -212 -137 -96 0 -165 28 -196 78 -30
50 -25 63 28 71 48 7 55 3 83 -44 5 -10 30 -16 74 -19 81 -5 116 12 116 58 0
38 -23 52 -129 79 -46 12 -96 28 -112 37 -37 18 -59 62 -59 114 0 70 27 103
110 133 8 3 48 6 89 6 55 1 85 -4 116 -19z m271 -180 c23 -102 44 -178 47
-170 3 8 23 93 43 188 l38 172 61 0 62 0 37 -167 c50 -224 47 -215 57 -178 5
16 23 101 41 187 l33 158 56 0 56 0 -48 -187 c-26 -104 -55 -216 -65 -250
l-16 -63 -63 0 -63 0 -36 150 c-20 82 -39 169 -43 192 l-7 43 -8 -40 c-4 -22
-24 -109 -44 -192 l-36 -153 -63 0 c-57 0 -63 2 -69 23 -3 12 -32 125 -65 250
l-59 228 56 -3 57 -3 41 -185z m974 150 l0 -40 -145 0 -145 0 0 -65 0 -65 130
0 130 0 0 -40 0 -40 -130 0 -130 0 0 -65 0 -65 150 0 150 0 0 -40 0 -40 -205
0 -205 0 0 250 0 250 200 0 200 0 0 -40z m476 0 l1 -40 -143 0 -144 0 0 -65 0
-65 130 0 130 0 0 -40 0 -40 -130 0 -130 0 0 -65 0 -65 150 0 150 0 0 -40 0
-40 -205 0 -205 0 0 250 0 250 198 0 197 0 1 -40z m474 0 l0 -40 -80 0 -80 0
0 -210 0 -210 -55 0 -55 0 0 210 0 210 -80 0 -80 0 0 40 0 40 215 0 215 0 0
-40z m360 -170 l0 -210 130 0 130 0 0 -40 0 -40 -185 0 -185 0 0 250 0 250 55
0 55 0 0 -210z m440 -40 l0 -250 -55 0 -55 0 0 250 0 250 55 0 55 0 0 -250z
m460 210 l0 -40 -130 0 -130 0 0 -80 0 -80 125 0 125 0 0 -40 0 -40 -125 0
-125 0 0 -90 0 -90 -55 0 -55 0 0 250 0 250 185 0 185 0 0 -40z m467 0 l-1
-40 -143 0 -143 0 0 -65 0 -65 130 0 130 0 0 -40 0 -40 -130 0 -130 0 0 -65 0
-65 150 0 150 0 0 -40 0 -40 -205 0 -205 0 0 250 0 250 199 0 200 0 -2 -40z
m-5263 -941 c20 -16 26 -29 26 -62 0 -59 -29 -87 -92 -87 l-48 0 0 85 0 85 44
0 c29 0 52 -7 70 -21z m426 -62 l0 -83 -45 -2 c-50 -2 -65 14 -65 65 0 43 21
67 53 61 23 -4 27 -2 27 18 0 15 6 24 15 24 12 0 15 -16 15 -83z m590 -1 l0
-84 -42 0 c-55 -1 -68 11 -68 63 0 49 18 70 55 63 21 -4 25 -1 25 18 0 15 6
24 15 24 12 0 15 -16 15 -84z m330 1 l0 -83 -45 -2 c-50 -2 -65 14 -65 65 0
43 21 67 53 61 23 -4 27 -2 27 18 0 15 6 24 15 24 12 0 15 -16 15 -83z m66 68
c-26 -19 -42 -19 -26 0 7 8 20 15 29 15 13 -1 13 -3 -3 -15z m1854 5 c0 -5 -4
-10 -10 -10 -5 0 -10 5 -10 10 0 6 5 10 10 10 6 0 10 -4 10 -10z m130 -73 l0
-84 -37 -1 c-44 -2 -60 10 -68 49 -10 44 18 82 56 77 25 -4 29 -1 29 19 0 13
5 23 10 23 6 0 10 -34 10 -83z m270 0 l0 -84 -45 -1 c-35 -2 -46 2 -55 17 -29
54 5 120 55 107 22 -6 25 -3 25 19 0 14 5 25 10 25 6 0 10 -34 10 -83z m790
73 c0 -5 -7 -10 -15 -10 -8 0 -15 5 -15 10 0 6 7 10 15 10 8 0 15 -4 15 -10z
m170 0 c0 -5 -4 -10 -10 -10 -5 0 -10 5 -10 10 0 6 5 10 10 10 6 0 10 -4 10
-10z m1186 -5 c-27 -21 -53 -20 -36 0 7 8 22 15 34 15 21 -1 21 -1 2 -15z
m204 5 c0 -5 -7 -10 -15 -10 -8 0 -15 5 -15 10 0 6 7 10 15 10 8 0 15 -4 15
-10z m-3080 -14 c0 -8 6 -17 13 -20 10 -5 10 -7 0 -12 -15 -7 -18 -94 -3 -94
6 0 10 -4 10 -10 0 -16 -37 -11 -44 6 -3 9 -6 33 -6 53 0 45 -7 54 -31 40 -15
-7 -19 -21 -19 -59 0 -38 -4 -50 -15 -50 -12 0 -15 14 -15 66 0 56 2 65 18 63
45 -4 72 2 72 16 0 8 5 15 10 15 6 0 10 -6 10 -14z m3140 0 c0 -8 6 -17 13
-20 10 -5 10 -7 0 -12 -15 -7 -18 -94 -3 -94 6 0 10 -4 10 -10 0 -5 -11 -10
-25 -10 -24 0 -25 3 -25 54 0 34 -5 57 -12 60 -10 5 -10 7 0 12 6 3 12 12 12
20 0 8 7 14 15 14 8 0 15 -6 15 -14z m-5926 -38 c33 -46 7 -108 -44 -108 -52
0 -80 72 -43 112 23 25 68 23 87 -4z m136 2 c16 -30 13 -110 -5 -110 -12 0
-15 13 -15 56 0 52 -1 55 -22 52 -20 -3 -23 -10 -26 -55 -2 -38 -7 -53 -18
-53 -11 0 -14 15 -14 64 l0 63 45 1 c34 1 47 -3 55 -18z m264 -2 c27 -38 20
-48 -29 -48 -34 0 -45 -4 -45 -15 0 -21 29 -31 50 -17 22 13 34 4 19 -15 -18
-21 -66 -16 -83 9 -33 46 -7 108 44 108 18 0 34 -8 44 -22z m192 5 c20 -20 1
-32 -21 -13 -8 7 -22 10 -30 6 -24 -9 -16 -80 9 -84 10 -2 22 2 26 8 4 7 13
11 20 8 20 -6 -17 -38 -45 -38 -13 0 -31 10 -39 22 -45 64 26 144 80 91z m122
5 c7 -7 12 -31 12 -55 0 -24 5 -43 10 -43 6 0 10 -4 10 -10 0 -5 -9 -10 -20
-10 -11 0 -20 5 -20 11 0 8 -4 8 -14 -1 -20 -16 -56 -9 -70 13 -16 25 4 51 43
55 19 2 31 9 31 18 0 16 -36 19 -45 4 -9 -15 -25 -12 -25 4 0 26 66 36 88 14z
m270 -5 c5 -10 12 -39 14 -64 l5 -46 -53 -1 c-49 -1 -54 1 -60 23 -8 33 11 55
47 55 19 0 29 5 29 15 0 18 -46 21 -53 3 -2 -7 -8 -10 -12 -6 -4 4 -5 14 -2
23 9 22 74 20 85 -2z m272 -48 c0 -37 -4 -65 -10 -65 -6 0 -10 28 -10 65 0 37
4 65 10 65 6 0 10 -28 10 -65z m128 48 c5 -10 12 -39 14 -64 l5 -46 -53 -1
c-49 -1 -54 1 -60 23 -8 33 11 55 47 55 19 0 29 5 29 15 0 18 -46 21 -53 3 -2
-7 -8 -10 -12 -6 -4 4 -5 14 -2 23 9 22 74 20 85 -2z m196 1 c9 -8 16 -24 16
-35 0 -16 -7 -19 -45 -19 -43 0 -45 -1 -35 -20 11 -21 44 -27 55 -10 4 6 11 8
16 4 17 -10 -11 -34 -39 -34 -35 0 -62 27 -62 63 0 57 58 88 94 51z m133 -1
c3 -8 -6 -10 -31 -6 -47 7 -48 -12 -1 -31 62 -26 55 -76 -10 -76 -33 0 -64 23
-46 34 5 4 12 2 16 -4 3 -5 17 -10 31 -10 36 0 30 28 -8 38 -33 8 -45 29 -34
58 7 18 77 16 83 -3z m123 -39 c0 -52 1 -55 23 -52 19 3 22 10 25 56 2 37 7
52 18 52 11 0 14 -15 14 -63 l0 -63 -45 -2 c-53 -2 -65 13 -65 82 0 34 4 46
15 46 12 0 15 -13 15 -56z m210 30 c16 -40 13 -104 -4 -104 -11 0 -16 15 -18
53 -3 44 -6 52 -23 52 -17 0 -20 -8 -23 -52 -2 -38 -7 -53 -18 -53 -11 0 -14
15 -14 63 l0 63 45 2 c41 1 47 -1 55 -24z m128 -24 c2 -24 8 -50 14 -58 15
-18 1 -28 -21 -15 -13 8 -22 8 -29 1 -5 -5 -20 -8 -33 -6 -18 2 -25 10 -27 32
-4 33 10 46 51 46 19 0 27 4 25 13 -6 17 -39 22 -48 7 -4 -7 -13 -9 -19 -5
-23 14 10 36 48 33 35 -3 36 -4 39 -48z m196 34 c18 -18 21 -66 6 -95 -13 -23
-62 -26 -84 -3 -19 18 -21 85 -4 102 17 17 64 15 82 -4z m128 10 c26 -8 34
-68 13 -100 -13 -20 -23 -25 -46 -22 -26 4 -29 2 -29 -24 0 -15 -4 -28 -10
-28 -6 0 -10 36 -10 88 l0 89 33 1 c17 1 40 -1 49 -4z m142 -10 c37 -36 7
-114 -43 -114 -32 0 -46 13 -56 53 -15 59 57 104 99 61z m208 -36 c2 -42 7
-54 22 -56 25 -5 36 14 36 66 0 23 5 42 10 42 6 0 10 -28 10 -63 l0 -64 -32
-1 c-62 -2 -68 4 -68 69 0 73 18 79 22 7z m208 32 c16 -30 13 -110 -5 -110
-12 0 -15 13 -15 56 0 52 -1 55 -22 52 -20 -3 -23 -10 -26 -55 -2 -38 -7 -53
-18 -53 -11 0 -14 15 -14 64 l0 63 45 1 c34 1 47 -3 55 -18z m60 -45 c0 -37
-4 -65 -10 -65 -6 0 -10 28 -10 65 0 37 4 65 10 65 6 0 10 -28 10 -65z m260
46 c5 -11 10 -35 10 -53 0 -19 5 -39 11 -45 7 -7 -8 -10 -50 -11 -57 -1 -61 1
-67 24 -8 32 11 54 47 54 19 0 29 5 29 15 0 18 -46 21 -53 3 -2 -7 -8 -10 -12
-6 -4 4 -5 14 -2 23 9 23 74 20 87 -4z m334 3 c19 -18 20 -53 4 -89 -10 -23
-17 -26 -45 -23 -30 4 -33 2 -33 -24 0 -15 -4 -28 -10 -28 -6 0 -10 36 -10 88
l0 89 39 1 c25 1 46 -4 55 -14z m124 4 c7 -7 12 -31 12 -54 0 -25 5 -44 13
-47 6 -2 8 -8 4 -13 -4 -4 -16 -3 -27 4 -12 7 -21 8 -25 2 -11 -18 -54 -11
-65 10 -17 32 4 60 45 60 26 0 33 3 29 15 -7 18 -35 20 -52 3 -17 -17 -28 -2
-12 17 15 18 61 20 78 3z m112 1 c0 -5 -6 -9 -14 -9 -18 0 -26 -22 -26 -71 0
-28 -4 -39 -15 -39 -12 0 -15 14 -15 64 l0 64 35 0 c19 0 35 -4 35 -9z m110
-8 c5 -11 10 -35 10 -53 0 -19 5 -39 11 -45 8 -8 -6 -11 -52 -10 -59 2 -64 4
-67 25 -5 32 15 52 49 52 19 0 29 5 29 15 0 18 -46 21 -53 3 -2 -7 -8 -10 -12
-6 -4 4 -5 14 -2 23 9 23 74 20 87 -4z m130 -26 c7 -25 16 -45 20 -45 4 0 13
20 20 45 8 27 18 45 27 45 8 0 13 -6 10 -12 -2 -7 -13 -37 -23 -65 -12 -34
-24 -53 -34 -53 -10 0 -23 19 -35 53 -10 28 -20 58 -23 65 -2 6 3 12 11 12 9
0 19 -18 27 -45z m120 -20 c0 -51 -3 -65 -15 -65 -12 0 -15 14 -15 65 0 51 3
65 15 65 12 0 15 -14 15 -65z m56 13 l17 -52 14 46 c13 45 28 66 40 55 2 -3
-5 -33 -18 -67 -28 -78 -46 -76 -76 8 -18 49 -19 62 -9 62 8 0 22 -23 32 -52z
m114 -13 c0 -84 -17 -84 -22 0 -2 47 0 65 10 65 8 0 12 -20 12 -65z m90 55 c0
-4 -7 -10 -15 -14 -11 -4 -15 -20 -15 -56 0 -38 -4 -50 -15 -50 -12 0 -15 14
-15 63 l0 64 30 1 c17 0 30 -3 30 -8z m180 -10 c8 -15 8 -20 -3 -20 -7 0 -18
5 -24 11 -21 21 -43 2 -43 -35 0 -42 14 -53 46 -35 28 15 42 6 24 -16 -31 -38
-100 -3 -100 50 0 56 76 90 100 45z m124 4 c36 -35 7 -114 -41 -114 -37 0 -63
27 -63 66 0 40 22 64 60 64 16 0 36 -7 44 -16z m138 3 c4 -7 8 -36 8 -64 0
-41 -4 -53 -15 -53 -12 0 -15 13 -15 56 0 52 -1 55 -22 52 -20 -3 -23 -10 -26
-55 -2 -38 -7 -53 -18 -53 -11 0 -14 15 -14 64 l0 63 47 1 c27 1 51 -4 55 -11z
m198 -2 c6 -8 12 -30 12 -50 0 -45 -17 -65 -53 -65 -24 0 -29 -4 -29 -25 0
-16 -6 -25 -15 -25 -12 0 -15 17 -15 90 l0 90 44 0 c26 0 48 -6 56 -15z m100
7 c0 -4 -9 -13 -20 -20 -15 -9 -20 -23 -20 -57 0 -33 -4 -45 -15 -45 -12 0
-15 14 -15 65 l0 65 35 0 c19 0 35 -3 35 -8z m114 -8 c20 -20 20 -63 0 -92
-20 -29 -79 -31 -94 -3 -14 27 -13 84 2 99 17 17 74 15 92 -4z m136 -4 c14
-26 13 -73 -3 -94 -10 -14 -23 -17 -45 -14 -30 4 -32 2 -32 -24 0 -18 -5 -28
-15 -28 -12 0 -15 17 -15 89 l0 88 50 2 c39 0 52 -3 60 -19z m131 4 c16 -19
15 -79 -1 -99 -15 -18 -74 -20 -88 -2 -21 25 -25 66 -8 92 19 29 75 35 97 9z
m126 1 c7 -21 -4 -32 -19 -17 -15 15 -48 16 -48 2 0 -6 12 -15 28 -21 66 -24
61 -79 -8 -79 -29 0 -42 5 -50 20 -8 15 -8 20 3 20 7 0 18 -5 24 -11 13 -13
44 -8 43 6 0 6 -15 15 -33 21 -32 11 -44 32 -33 60 8 20 85 19 93 -1z m53 -50
c0 -51 -3 -65 -15 -65 -12 0 -15 14 -15 65 0 51 3 65 15 65 12 0 15 -14 15
-65z m194 49 c20 -20 20 -63 0 -92 -18 -26 -65 -30 -88 -6 -19 18 -21 85 -4
102 17 17 74 15 92 -4z m131 -26 l18 -43 14 43 c8 23 21 42 29 42 18 0 18 -5
-7 -69 -35 -92 -47 -111 -74 -111 -30 0 -33 16 -5 23 24 6 26 31 6 78 -26 64
-28 79 -13 79 8 0 23 -19 32 -42z m-3395 -393 c0 -50 -4 -85 -10 -85 -6 0 -10
35 -10 85 0 50 4 85 10 85 6 0 10 -35 10 -85z m414 70 c-25 -19 -40 -19 -24 0
7 8 20 15 28 15 13 0 12 -3 -4 -15z m-490 -31 c11 -4 16 -19 16 -48 0 -23 5
-47 12 -54 17 -17 1 -28 -21 -15 -13 8 -22 8 -29 1 -5 -5 -20 -8 -33 -6 -18 2
-25 10 -27 32 -4 33 10 46 51 46 15 0 27 5 27 10 0 17 -31 24 -50 12 -22 -13
-34 -4 -19 15 12 14 46 17 73 7z m198 -11 c10 -9 18 -24 18 -35 0 -15 -8 -18
-46 -18 -38 0 -45 -3 -42 -17 4 -22 48 -30 59 -12 10 17 23 4 16 -16 -8 -18
-56 -20 -80 -2 -9 6 -20 26 -23 43 -11 58 55 96 98 57z m148 -52 c0 -79 -17
-111 -59 -111 -16 0 -34 6 -40 13 -15 19 -3 28 19 15 21 -13 50 -4 50 15 0 10
-8 13 -25 9 -37 -7 -55 14 -55 62 0 53 13 65 67 64 l43 -1 0 -66z m90 58 c0
-5 -6 -9 -14 -9 -16 0 -26 -30 -26 -77 0 -18 -4 -33 -10 -33 -6 0 -10 28 -10
63 l0 64 30 1 c17 0 30 -4 30 -9z m50 -54 c0 -51 -3 -65 -15 -65 -12 0 -15 14
-15 65 0 51 3 65 15 65 12 0 15 -14 15 -65z m120 56 c8 -6 14 -24 13 -48 -1
-21 4 -44 9 -51 15 -18 0 -28 -21 -15 -13 8 -22 8 -29 1 -5 -5 -20 -8 -33 -6
-20 2 -24 9 -24 38 0 33 2 35 38 38 24 2 37 8 34 15 -5 17 -38 21 -47 7 -4 -7
-13 -9 -19 -5 -9 5 -9 10 0 21 13 16 57 18 79 5z m534 -580 c63 -31 116 -84
146 -147 35 -70 35 -179 1 -248 -31 -63 -90 -122 -150 -150 -46 -21 -52 -21
-836 -24 -531 -2 -806 1 -840 8 -110 23 -204 120 -226 233 -30 150 63 304 209
343 37 10 223 13 847 11 l800 -2 49 -24z"/>
<path d="M5030 3945 c0 -65 0 -65 28 -65 38 0 60 19 68 56 8 40 -22 74 -66 74
l-30 0 0 -65z"/>
<path d="M5467 3948 c-10 -38 3 -69 27 -66 17 2 21 10 21 43 0 33 -4 41 -21
43 -15 2 -23 -4 -27 -20z"/>
<path d="M6054 3946 c-9 -38 4 -68 29 -64 18 2 22 10 22 43 0 34 -4 40 -22 43
-17 3 -24 -3 -29 -22z"/>
<path d="M6387 3948 c-10 -38 3 -69 27 -66 17 2 21 10 21 43 0 33 -4 41 -21
43 -15 2 -23 -4 -27 -20z"/>
<path d="M8444 3956 c-12 -31 0 -71 23 -74 25 -4 38 26 29 64 -7 27 -43 34
-52 10z"/>
<path d="M8714 3956 c-12 -30 1 -71 22 -74 17 -2 23 4 27 27 4 17 4 38 1 46
-8 19 -43 20 -50 1z"/>
<path d="M5204 3957 c-3 -9 -4 -28 -2 -44 2 -22 8 -28 28 -28 23 0 25 4 25 40
0 34 -3 40 -23 43 -13 2 -24 -3 -28 -11z"/>
<path d="M5607 3964 c-15 -15 -6 -24 24 -24 20 0 29 4 27 13 -5 14 -40 21 -51
11z"/>
<path d="M5938 3923 c-10 -2 -18 -13 -18 -24 0 -30 44 -22 48 9 3 22 1 23 -30
15z"/>
<path d="M6194 3916 c-14 -11 -16 -18 -8 -26 18 -18 49 -7 52 18 4 26 -15 29
-44 8z"/>
<path d="M6602 3919 c-30 -11 -23 -34 9 -34 17 0 25 6 27 23 4 24 -1 26 -36
11z"/>
<path d="M6797 3963 c-15 -14 -6 -23 23 -23 22 0 28 4 24 15 -6 15 -35 20 -47
8z"/>
<path d="M7374 3909 c-3 -6 -1 -16 5 -22 13 -13 42 0 49 21 5 15 -44 16 -54 1z"/>
<path d="M7574 3946 c-8 -35 4 -66 26 -66 25 0 42 33 34 65 -9 35 -51 35 -60
1z"/>
<path d="M7714 3946 c-9 -38 4 -68 29 -64 18 2 22 10 22 43 0 34 -4 40 -22 43
-17 3 -24 -3 -29 -22z"/>
<path d="M7844 3957 c-3 -9 -4 -28 -2 -44 2 -22 8 -28 28 -28 23 0 25 4 25 40
0 34 -3 40 -23 43 -13 2 -24 -3 -28 -11z"/>
<path d="M8592 3919 c-30 -11 -23 -34 9 -34 17 0 25 6 27 23 4 24 -1 26 -36
11z"/>
<path d="M8914 3946 c-9 -38 4 -68 29 -64 18 2 22 10 22 43 0 34 -4 40 -22 43
-17 3 -24 -3 -29 -22z"/>
<path d="M9040 3900 c0 -13 7 -20 20 -20 10 0 24 9 30 20 10 18 8 20 -20 20
-23 0 -30 -4 -30 -20z"/>
<path d="M9278 3923 c-10 -2 -18 -13 -18 -24 0 -30 44 -22 48 9 3 22 1 23 -30
15z"/>
<path d="M10074 3957 c-3 -9 -4 -28 -2 -44 2 -22 8 -28 28 -28 23 0 25 4 25
40 0 34 -3 40 -23 43 -13 2 -24 -3 -28 -11z"/>
<path d="M10414 3957 c-3 -9 -4 -28 -2 -44 2 -20 8 -28 23 -28 17 0 20 7 20
40 0 30 -4 41 -18 43 -9 2 -20 -3 -23 -11z"/>
<path d="M10627 3964 c-4 -4 -7 -22 -7 -41 0 -39 23 -54 48 -30 12 13 14 23 6
44 -9 27 -33 41 -47 27z"/>
<path d="M10761 3951 c-15 -27 3 -74 27 -69 24 5 25 81 0 86 -9 2 -21 -6 -27
-17z"/>
<path d="M10891 3948 c-11 -30 2 -63 25 -63 27 0 28 78 1 83 -11 2 -20 -5 -26
-20z"/>
<path d="M11264 3956 c-10 -27 1 -71 18 -74 25 -5 43 35 29 64 -12 26 -39 32
-47 10z"/>
<path d="M7944 3526 c-15 -12 -17 -17 -6 -28 15 -15 45 0 50 26 4 20 -18 21
-44 2z"/>
<path d="M8127 3566 c-5 -12 1 -16 24 -16 20 0 29 4 27 13 -7 18 -45 20 -51 3z"/>
<path d="M8254 3556 c-10 -41 -1 -61 26 -61 27 0 36 20 26 61 -4 15 -14 24
-26 24 -12 0 -22 -9 -26 -24z"/>
<path d="M8548 3529 c-23 -13 -23 -39 0 -39 21 0 42 18 42 37 0 15 -18 16 -42
2z"/>
<path d="M776 8661 c-27 -30 -16 -54 34 -72 25 -9 46 -23 48 -32 4 -20 -33
-28 -55 -11 -24 18 -43 18 -43 -1 0 -32 79 -47 114 -22 12 9 17 23 14 42 -2
24 -10 31 -38 40 -56 16 -66 26 -45 41 13 10 23 10 37 3 10 -6 26 -9 35 -7 15
3 15 5 -1 21 -23 23 -78 22 -100 -2z"/>
<path d="M910 8668 c0 -7 8 -44 18 -83 15 -57 22 -71 40 -73 18 -3 22 4 33 57
7 33 15 58 17 56 3 -2 10 -28 17 -57 9 -41 16 -54 32 -56 18 -3 23 7 41 80 11
45 19 84 17 86 -14 14 -32 -15 -44 -69 -7 -35 -15 -59 -17 -54 -1 6 -8 36 -14
68 -9 45 -15 57 -30 57 -19 0 -25 -10 -36 -73 -9 -54 -21 -54 -29 -1 -3 26 -9
53 -12 60 -6 17 -33 18 -33 2z"/>
<path d="M1150 8595 l0 -85 65 0 c51 0 65 3 65 15 0 11 -12 15 -50 15 -43 0
-50 3 -50 20 0 17 7 20 45 20 33 0 45 4 45 15 0 11 -12 15 -45 15 -38 0 -45 3
-45 20 0 17 7 20 50 20 38 0 50 4 50 15 0 12 -14 15 -65 15 l-65 0 0 -85z"/>
<path d="M1310 8595 l0 -85 65 0 c51 0 65 3 65 15 0 11 -12 15 -50 15 -43 0
-50 3 -50 20 0 17 7 20 45 20 33 0 45 4 45 15 0 11 -12 15 -45 15 -38 0 -45 3
-45 20 0 17 7 20 50 20 38 0 50 4 50 15 0 12 -14 15 -65 15 l-65 0 0 -85z"/>
<path d="M1460 8665 c0 -9 9 -15 25 -15 24 0 25 -2 25 -70 0 -56 3 -70 15 -70
12 0 15 14 15 69 0 68 1 70 27 73 14 2 28 9 31 16 3 9 -15 12 -67 12 -56 0
-71 -3 -71 -15z"/>
<path d="M1680 8595 l0 -85 60 0 c47 0 60 3 60 15 0 11 -11 15 -40 15 l-40 0
0 70 c0 63 -2 70 -20 70 -18 0 -20 -7 -20 -85z"/>
<path d="M1830 8595 c0 -69 3 -85 15 -85 12 0 15 16 15 85 0 69 -3 85 -15 85
-12 0 -15 -16 -15 -85z"/>
<path d="M1890 8595 c0 -78 2 -85 20 -85 16 0 20 7 20 30 0 28 2 30 40 30 29
0 40 4 40 15 0 11 -11 15 -40 15 -36 0 -40 3 -40 25 0 23 4 25 40 25 29 0 40
4 40 15 0 12 -13 15 -60 15 l-60 0 0 -85z"/>
<path d="M2040 8595 l0 -85 71 0 c52 0 70 3 67 13 -3 6 -25 13 -51 15 -39 3
-47 6 -47 23 0 16 7 19 40 19 29 0 40 4 40 15 0 11 -11 15 -40 15 -33 0 -40 3
-40 20 0 17 7 20 45 20 33 0 45 4 45 15 0 12 -14 15 -65 15 l-65 0 0 -85z"/>
<path d="M9193 8600 c0 -36 2 -50 4 -32 2 17 2 47 0 65 -2 17 -4 3 -4 -33z"/>
<path d="M9880 8600 c0 -33 4 -60 10 -60 6 0 10 11 10 25 0 33 25 33 46 0 20
-31 31 -26 12 5 -10 18 -10 24 0 27 17 7 15 50 -4 57 -9 3 -29 6 -45 6 -29 0
-29 0 -29 -60z m75 25 c0 -14 -8 -21 -27 -23 -24 -3 -28 0 -28 23 0 23 4 26
28 23 19 -2 27 -9 27 -23z"/>
<path d="M10259 8643 c-1 -10 -3 -35 -5 -55 -2 -21 1 -40 6 -43 6 -4 10 18 10
54 0 34 -2 61 -5 61 -3 0 -6 -8 -6 -17z"/>
<path d="M11001 8642 c-12 -23 -7 -29 38 -48 28 -12 31 -16 21 -29 -15 -18
-41 -19 -60 -2 -12 10 -12 9 -1 -5 16 -22 54 -23 71 -3 18 22 5 45 -30 51 -32
7 -41 31 -15 40 8 4 23 0 32 -7 14 -12 16 -12 11 1 -7 23 -55 25 -67 2z"/>
<path d="M11960 8616 c0 -47 19 -76 49 -76 29 0 41 22 39 75 l-2 50 -3 -47
c-7 -87 -63 -95 -63 -8 0 27 -4 50 -10 50 -5 0 -10 -20 -10 -44z"/>
<path d="M12080 8603 c0 -58 1 -60 26 -59 17 1 29 8 34 21 9 24 -5 65 -22 65
-9 0 -9 -3 0 -12 7 -7 12 -25 12 -41 0 -22 -4 -28 -17 -25 -14 2 -18 14 -20
52 -2 70 -13 70 -13 -1z"/>
<path d="M13003 8653 c-26 -10 -13 -43 22 -57 19 -8 35 -20 35 -26 0 -17 -31
-24 -52 -11 -11 7 -22 10 -25 7 -3 -3 7 -11 21 -18 20 -8 32 -9 44 -1 31 19
26 42 -13 59 -20 8 -35 20 -32 27 5 15 47 22 47 8 0 -6 5 -11 11 -11 8 0 8 5
-1 15 -12 15 -34 18 -57 8z"/>
<path d="M13180 8604 c0 -54 2 -60 22 -61 29 -3 48 14 48 41 0 22 -17 46 -33
46 -5 0 -1 -7 7 -16 26 -26 13 -73 -18 -61 -11 4 -15 19 -14 52 0 25 -2 49 -6
52 -3 4 -6 -20 -6 -53z"/>
<path d="M13462 8598 l1 -63 6 53 6 52 28 -50 c16 -27 32 -50 38 -50 5 0 8 28
7 63 l-1 62 -6 -55 -6 -55 -30 52 c-16 29 -33 53 -37 53 -5 0 -7 -28 -6 -62z"/>
<path d="M13828 8638 c-8 -24 8 -92 22 -96 12 -4 13 -2 3 9 -15 15 -17 66 -4
71 5 2 3 8 -4 15 -10 9 -15 9 -17 1z"/>
<path d="M9231 8585 l1 -50 8 40 c5 22 4 44 -1 50 -5 5 -9 -11 -8 -40z"/>
<path d="M9273 8619 c11 -6 17 -23 18 -47 1 -25 3 -29 6 -13 7 36 -5 71 -25
71 -16 -1 -16 -1 1 -11z"/>
<path d="M9323 8585 c0 -27 2 -38 4 -22 2 15 2 37 0 50 -2 12 -4 0 -4 -28z"/>
<path d="M9360 8610 c-23 -43 18 -87 49 -53 15 16 15 16 -2 3 -23 -17 -40 -2
-35 31 2 16 9 24 20 23 10 -1 15 2 12 7 -9 16 -33 10 -44 -11z"/>
<path d="M9443 8585 c0 -27 2 -38 4 -22 2 15 2 37 0 50 -2 12 -4 0 -4 -28z"/>
<path d="M9480 8616 c-15 -19 -9 -56 12 -69 34 -22 66 41 36 71 -16 16 -33 15
-48 -2z m45 -31 c0 -23 -4 -30 -20 -30 -21 0 -31 25 -21 51 11 28 41 12 41
-21z"/>
<path d="M9999 8607 c-8 -18 -8 -30 0 -43 9 -17 10 -18 11 -1 0 12 8 17 26 17
21 0 25 4 22 23 -5 33 -45 36 -59 4z m49 -5 c2 -7 -6 -12 -17 -12 -21 0 -27
11 -14 24 9 9 26 2 31 -12z"/>
<path d="M10091 8616 c-12 -15 -2 -27 32 -39 27 -10 9 -30 -20 -22 -16 4 -22
2 -18 -5 8 -14 38 -13 53 2 18 18 15 27 -13 38 -30 11 -34 35 -5 27 11 -3 18
-1 14 4 -8 13 -30 11 -43 -5z"/>
<path d="M10173 8585 c0 -27 2 -38 4 -22 2 15 2 37 0 50 -2 12 -4 0 -4 -28z"/>
<path d="M10204 8616 c-11 -29 1 -71 21 -74 18 -2 18 -2 3 8 -10 6 -18 22 -18
35 0 13 8 29 18 34 16 10 16 10 -1 11 -10 0 -20 -6 -23 -14z"/>
<path d="M10303 8623 c-7 -2 -13 -20 -13 -38 0 -25 5 -35 21 -40 12 -4 25 -3
30 2 6 6 1 9 -12 9 -12 -1 -24 5 -26 12 -3 8 6 12 26 12 34 0 36 2 21 31 -11
19 -23 22 -47 12z m41 -18 c4 -11 -1 -15 -19 -15 -24 0 -32 10 -18 23 11 12
31 8 37 -8z"/>
<path d="M10381 8581 l2 -46 6 40 c4 26 12 41 23 43 13 3 18 -6 21 -40 l4 -43
-1 45 c-1 42 -3 45 -28 46 -27 1 -28 -1 -27 -45z"/>
<path d="M10477 8623 c-13 -13 -7 -71 8 -77 19 -7 45 3 45 16 0 6 -7 5 -15 -2
-21 -17 -38 -1 -33 31 2 19 8 23 28 21 20 -2 22 0 10 8 -18 11 -34 13 -43 3z"/>
<path d="M10553 8585 c0 -27 2 -38 4 -22 2 15 2 37 0 50 -2 12 -4 0 -4 -28z"/>
<path d="M10596 8621 c-4 -5 2 -7 13 -4 10 3 21 0 25 -5 3 -5 -8 -12 -24 -16
-22 -4 -30 -11 -30 -26 0 -25 25 -36 45 -20 10 9 15 9 15 1 0 -6 4 -11 8 -11
11 0 2 61 -10 78 -12 14 -34 16 -42 3z m44 -40 c0 -5 -7 -14 -15 -21 -18 -15
-42 1 -31 19 8 13 46 15 46 2z"/>
<path d="M11113 8623 c-7 -2 -13 -20 -13 -38 0 -25 5 -35 21 -40 12 -4 25 -3
30 2 6 6 1 9 -12 9 -12 -1 -24 5 -26 12 -3 8 6 12 26 12 34 0 36 2 21 31 -11
19 -23 22 -47 12z m41 -18 c4 -11 -1 -15 -19 -15 -24 0 -32 10 -18 23 11 12
31 8 37 -8z"/>
<path d="M11191 8580 l2 -45 6 40 c8 55 34 58 50 5 6 -22 16 -40 20 -40 5 0
16 20 24 45 9 25 12 45 7 45 -5 0 -11 -13 -15 -30 -9 -43 -22 -45 -29 -5 -6
32 -10 35 -36 33 -29 -2 -30 -4 -29 -48z"/>
<path d="M11323 8585 c0 -27 2 -38 4 -22 2 15 2 37 0 50 -2 12 -4 0 -4 -28z"/>
<path d="M11360 8610 c-23 -43 18 -87 49 -53 15 16 15 16 -2 3 -23 -17 -40 -2
-35 31 2 16 9 24 20 23 10 -1 15 2 12 7 -9 16 -33 10 -44 -11z"/>
<path d="M11443 8585 c0 -27 2 -38 4 -22 2 15 2 37 0 50 -2 12 -4 0 -4 -28z"/>
<path d="M11480 8616 c-15 -19 -9 -56 12 -69 34 -22 66 41 36 71 -16 16 -33
15 -48 -2z m45 -31 c0 -23 -4 -30 -20 -30 -21 0 -31 25 -21 51 11 28 41 12 41
-21z"/>
<path d="M11567 8623 c-14 -13 -6 -30 18 -41 33 -15 33 -36 -1 -29 -16 3 -22
1 -16 -5 15 -15 46 -5 50 15 2 11 -6 20 -22 27 -33 12 -34 34 -1 28 13 -3 22
-1 19 3 -6 11 -38 12 -47 2z"/>
<path d="M12173 8585 c0 -27 2 -38 4 -22 2 15 2 37 0 50 -2 12 -4 0 -4 -28z"/>
<path d="M12212 8618 c-17 -17 -15 -53 3 -68 17 -14 45 -7 45 12 0 10 -3 9 -9
-1 -14 -21 -41 -5 -41 24 0 29 27 45 42 24 8 -12 9 -11 5 1 -5 19 -29 24 -45
8z"/>
<path d="M12296 8621 c-4 -5 3 -7 14 -4 11 3 20 1 20 -5 0 -6 -10 -12 -22 -14
-17 -2 -23 -10 -23 -27 0 -13 7 -26 15 -28 12 -4 13 -3 1 5 -18 13 -7 42 15
42 11 0 15 -6 11 -19 -4 -16 9 -31 28 -31 5 0 -11 66 -19 79 -9 13 -33 15 -40
2z"/>
<path d="M12382 8618 c-17 -17 -15 -53 3 -68 17 -14 45 -7 45 12 0 10 -3 9 -9
-1 -14 -21 -41 -5 -41 24 0 29 27 45 42 24 8 -12 9 -11 5 1 -5 19 -29 24 -45
8z"/>
<path d="M12453 8585 c0 -27 2 -38 4 -22 2 15 2 37 0 50 -2 12 -4 0 -4 -28z"/>
<path d="M12490 8610 c-6 -12 -8 -30 -3 -43 6 -19 8 -18 13 13 3 22 11 35 20
35 23 0 25 -46 3 -63 -17 -13 -17 -14 1 -10 24 4 36 36 25 66 -10 28 -45 29
-59 2z"/>
<path d="M12581 8581 l2 -46 6 40 c4 26 12 41 23 43 13 3 18 -6 21 -40 l4 -43
-1 45 c-1 42 -3 45 -28 46 -27 1 -28 -1 -27 -45z"/>
<path d="M13100 8616 c-15 -19 -9 -56 12 -69 34 -22 66 41 36 71 -16 16 -33
15 -48 -2z m45 -31 c0 -23 -4 -30 -20 -30 -21 0 -31 25 -21 51 11 28 41 12 41
-21z"/>
<path d="M13272 8580 c1 -40 2 -41 5 -10 2 19 11 40 20 47 13 10 13 12 -6 10
-18 -1 -21 -7 -19 -47z"/>
<path d="M13330 8616 c-25 -31 13 -97 40 -70 8 8 4 10 -11 10 -12 -1 -24 5
-26 12 -3 8 6 12 26 12 32 0 41 16 19 38 -16 16 -33 15 -48 -2z m48 -13 c2 -8
-6 -13 -22 -13 -25 0 -33 10 -19 24 10 10 36 3 41 -11z"/>
<path d="M13580 8616 c-15 -19 -9 -56 12 -69 34 -22 66 41 36 71 -16 16 -33
15 -48 -2z m45 -31 c0 -23 -4 -30 -20 -30 -21 0 -31 25 -21 51 11 28 41 12 41
-21z"/>
<path d="M13667 8623 c-14 -13 -6 -30 18 -41 33 -15 33 -36 -1 -29 -16 3 -22
1 -16 -5 15 -15 46 -5 50 15 2 11 -6 20 -22 27 -33 12 -34 34 -1 28 13 -3 22
-1 19 3 -6 11 -38 12 -47 2z"/>
<path d="M13750 8616 c-15 -19 -9 -56 12 -69 34 -22 66 41 36 71 -16 16 -33
15 -48 -2z m45 -31 c0 -23 -4 -30 -20 -30 -21 0 -31 25 -21 51 11 28 41 12 41
-21z"/>
<path d="M13880 8582 c4 -44 5 -45 8 -12 2 19 8 40 12 45 6 7 3 11 -8 12 -14
1 -16 -6 -12 -45z"/>
<path d="M13930 8610 c-6 -12 -8 -30 -3 -43 6 -19 8 -18 13 13 3 22 11 35 20
35 23 0 25 -46 3 -63 -17 -13 -17 -14 1 -10 24 4 36 36 25 66 -10 28 -45 29
-59 2z"/>
<path d="M14021 8616 c-12 -15 -2 -27 32 -39 27 -10 9 -30 -20 -22 -16 4 -22
2 -18 -5 8 -14 38 -13 53 2 18 18 15 27 -13 38 -30 11 -34 35 -5 27 11 -3 18
-1 14 4 -8 13 -30 11 -43 -5z"/>
<path d="M10035 8550 c-16 -7 -17 -9 -3 -9 9 -1 20 4 23 9 7 11 7 11 -20 0z"/>
</g>
</svg>
